<mxfile host="app.diagrams.net" modified="2024-05-05T23:28:26.025Z" agent="Mozilla/5.0 (Windows NT 10.0; Win64; x64) AppleWebKit/537.36 (KHTML, like Gecko) Chrome/123.0.0.0 Safari/537.36 OPR/109.0.0.0" etag="P9ypABPF5Nf_C8DP6jVu" version="24.3.1" type="github">
  <diagram name="Page-1" id="74e2e168-ea6b-b213-b513-2b3c1d86103e">
    <mxGraphModel dx="1393" dy="835" grid="1" gridSize="10" guides="1" tooltips="1" connect="1" arrows="1" fold="1" page="1" pageScale="1" pageWidth="1169" pageHeight="827" background="none" math="0" shadow="0">
      <root>
        <mxCell id="0" />
        <mxCell id="1" parent="0" />
        <mxCell id="6m0kf4rlSynbOd0qpqZj-47" style="edgeStyle=orthogonalEdgeStyle;curved=1;rounded=0;orthogonalLoop=1;jettySize=auto;html=1;exitX=1;exitY=0.5;exitDx=0;exitDy=0;entryX=0.004;entryY=0.073;entryDx=0;entryDy=0;entryPerimeter=0;" parent="1" source="fh5AQjrK4AlLcC_H-wfN-78" target="6m0kf4rlSynbOd0qpqZj-26" edge="1">
          <mxGeometry relative="1" as="geometry">
            <Array as="points">
              <mxPoint x="1075" y="460" />
              <mxPoint x="1370" y="460" />
              <mxPoint x="1370" y="376" />
            </Array>
          </mxGeometry>
        </mxCell>
        <mxCell id="77e6c97f196da883-1" value="&lt;font style=&quot;font-size: 14px;&quot; face=&quot;Times New Roman&quot;&gt;Pool&lt;/font&gt;" style="swimlane;html=1;childLayout=stackLayout;startSize=20;rounded=0;shadow=0;labelBackgroundColor=none;strokeWidth=1;fontFamily=Verdana;fontSize=8;align=center;" parent="1" vertex="1">
          <mxGeometry x="70" y="40" width="2990" height="780" as="geometry">
            <mxRectangle x="70" y="40" width="60" height="20" as="alternateBounds" />
          </mxGeometry>
        </mxCell>
        <mxCell id="77e6c97f196da883-2" value="Imports" style="swimlane;html=1;startSize=20;" parent="77e6c97f196da883-1" vertex="1">
          <mxGeometry y="20" width="160" height="760" as="geometry" />
        </mxCell>
        <mxCell id="fh5AQjrK4AlLcC_H-wfN-2" value="" style="edgeStyle=orthogonalEdgeStyle;rounded=0;orthogonalLoop=1;jettySize=auto;html=1;" parent="77e6c97f196da883-2" source="77e6c97f196da883-8" target="fh5AQjrK4AlLcC_H-wfN-1" edge="1">
          <mxGeometry relative="1" as="geometry" />
        </mxCell>
        <mxCell id="77e6c97f196da883-8" value="&lt;font face=&quot;Times New Roman&quot; style=&quot;font-size: 14px;&quot;&gt;Import dos&amp;nbsp;&lt;/font&gt;&lt;div&gt;&lt;font face=&quot;e1qbxwma6E4ngtEFvqf2&quot; size=&quot;3&quot; style=&quot;&quot;&gt;recursos&lt;/font&gt;&lt;/div&gt;" style="rounded=1;whiteSpace=wrap;html=1;shadow=0;labelBackgroundColor=none;strokeWidth=1;fontFamily=Verdana;fontSize=8;align=center;" parent="77e6c97f196da883-2" vertex="1">
          <mxGeometry x="30" y="60" width="100" height="60" as="geometry" />
        </mxCell>
        <mxCell id="fh5AQjrK4AlLcC_H-wfN-1" value="&lt;font style=&quot;font-size: 14px;&quot; face=&quot;Times New Roman&quot;&gt;Import do&lt;/font&gt;&lt;div&gt;&lt;font size=&quot;3&quot; style=&quot;&quot; face=&quot;Times New Roman&quot;&gt;dataset&lt;/font&gt;&lt;/div&gt;" style="rounded=1;whiteSpace=wrap;html=1;shadow=0;labelBackgroundColor=none;strokeWidth=1;fontFamily=Verdana;fontSize=8;align=center;" parent="77e6c97f196da883-2" vertex="1">
          <mxGeometry x="30" y="200" width="100" height="60" as="geometry" />
        </mxCell>
        <mxCell id="77e6c97f196da883-3" value="Data Preprocessing" style="swimlane;html=1;startSize=20;" parent="77e6c97f196da883-1" vertex="1">
          <mxGeometry x="160" y="20" width="410" height="760" as="geometry" />
        </mxCell>
        <mxCell id="fh5AQjrK4AlLcC_H-wfN-9" value="" style="edgeStyle=orthogonalEdgeStyle;rounded=0;orthogonalLoop=1;jettySize=auto;html=1;" parent="77e6c97f196da883-3" source="fh5AQjrK4AlLcC_H-wfN-3" target="fh5AQjrK4AlLcC_H-wfN-8" edge="1">
          <mxGeometry relative="1" as="geometry" />
        </mxCell>
        <mxCell id="fh5AQjrK4AlLcC_H-wfN-3" value="&lt;font style=&quot;font-size: 14px;&quot; face=&quot;Times New Roman&quot;&gt;Drop rows with missing values&lt;/font&gt;" style="rounded=1;whiteSpace=wrap;html=1;shadow=0;labelBackgroundColor=none;strokeWidth=1;fontFamily=Verdana;fontSize=8;align=center;" parent="77e6c97f196da883-3" vertex="1">
          <mxGeometry x="40" y="50" width="100" height="60" as="geometry" />
        </mxCell>
        <mxCell id="fh5AQjrK4AlLcC_H-wfN-11" value="" style="edgeStyle=orthogonalEdgeStyle;rounded=0;orthogonalLoop=1;jettySize=auto;html=1;fontFamily=Verdana;fontSize=8;fontColor=default;labelBackgroundColor=none;" parent="77e6c97f196da883-3" source="fh5AQjrK4AlLcC_H-wfN-8" target="fh5AQjrK4AlLcC_H-wfN-10" edge="1">
          <mxGeometry relative="1" as="geometry" />
        </mxCell>
        <mxCell id="fh5AQjrK4AlLcC_H-wfN-8" value="&lt;font style=&quot;font-size: 14px;&quot; face=&quot;Times New Roman&quot;&gt;Removing categorical&amp;nbsp;&lt;/font&gt;&lt;div&gt;&lt;font size=&quot;3&quot; style=&quot;&quot; face=&quot;Times New Roman&quot;&gt;columns&lt;/font&gt;&lt;/div&gt;" style="rounded=1;whiteSpace=wrap;html=1;shadow=0;labelBackgroundColor=none;strokeWidth=1;fontFamily=Verdana;fontSize=8;align=center;" parent="77e6c97f196da883-3" vertex="1">
          <mxGeometry x="40" y="130" width="100" height="60" as="geometry" />
        </mxCell>
        <mxCell id="fh5AQjrK4AlLcC_H-wfN-18" style="edgeStyle=orthogonalEdgeStyle;rounded=0;orthogonalLoop=1;jettySize=auto;html=1;exitX=0;exitY=0.75;exitDx=0;exitDy=0;entryX=0;entryY=0.5;entryDx=0;entryDy=0;fontFamily=Verdana;fontSize=8;fontColor=default;labelBackgroundColor=none;" parent="77e6c97f196da883-3" source="fh5AQjrK4AlLcC_H-wfN-10" target="fh5AQjrK4AlLcC_H-wfN-15" edge="1">
          <mxGeometry relative="1" as="geometry" />
        </mxCell>
        <mxCell id="fh5AQjrK4AlLcC_H-wfN-19" style="edgeStyle=orthogonalEdgeStyle;rounded=0;orthogonalLoop=1;jettySize=auto;html=1;exitX=0;exitY=0.5;exitDx=0;exitDy=0;entryX=0;entryY=0.75;entryDx=0;entryDy=0;fontFamily=Verdana;fontSize=8;fontColor=default;labelBackgroundColor=none;" parent="77e6c97f196da883-3" source="fh5AQjrK4AlLcC_H-wfN-10" target="fh5AQjrK4AlLcC_H-wfN-16" edge="1">
          <mxGeometry relative="1" as="geometry" />
        </mxCell>
        <mxCell id="fh5AQjrK4AlLcC_H-wfN-20" style="edgeStyle=orthogonalEdgeStyle;rounded=0;orthogonalLoop=1;jettySize=auto;html=1;exitX=0.5;exitY=1;exitDx=0;exitDy=0;entryX=0.5;entryY=0;entryDx=0;entryDy=0;fontFamily=Verdana;fontSize=8;fontColor=default;labelBackgroundColor=none;" parent="77e6c97f196da883-3" source="fh5AQjrK4AlLcC_H-wfN-10" target="fh5AQjrK4AlLcC_H-wfN-12" edge="1">
          <mxGeometry relative="1" as="geometry" />
        </mxCell>
        <mxCell id="fh5AQjrK4AlLcC_H-wfN-10" value="&lt;font style=&quot;font-size: 14px;&quot; face=&quot;Times New Roman&quot;&gt;Split dataset&lt;/font&gt;" style="rounded=1;whiteSpace=wrap;html=1;shadow=0;labelBackgroundColor=none;strokeWidth=1;fontFamily=Verdana;fontSize=8;align=center;" parent="77e6c97f196da883-3" vertex="1">
          <mxGeometry x="40" y="210" width="100" height="60" as="geometry" />
        </mxCell>
        <mxCell id="fh5AQjrK4AlLcC_H-wfN-12" value="&lt;font style=&quot;font-size: 14px;&quot; face=&quot;Times New Roman&quot;&gt;Train dataset&lt;/font&gt;" style="rounded=1;whiteSpace=wrap;html=1;shadow=0;labelBackgroundColor=none;strokeWidth=1;fontFamily=Verdana;fontSize=8;align=center;" parent="77e6c97f196da883-3" vertex="1">
          <mxGeometry x="40" y="290" width="100" height="60" as="geometry" />
        </mxCell>
        <mxCell id="fh5AQjrK4AlLcC_H-wfN-30" style="edgeStyle=orthogonalEdgeStyle;rounded=0;orthogonalLoop=1;jettySize=auto;html=1;exitX=1;exitY=0.5;exitDx=0;exitDy=0;entryX=0;entryY=0.5;entryDx=0;entryDy=0;fontFamily=Verdana;fontSize=8;fontColor=default;labelBackgroundColor=none;" parent="77e6c97f196da883-3" source="fh5AQjrK4AlLcC_H-wfN-15" target="fh5AQjrK4AlLcC_H-wfN-25" edge="1">
          <mxGeometry relative="1" as="geometry" />
        </mxCell>
        <mxCell id="fh5AQjrK4AlLcC_H-wfN-15" value="&lt;font style=&quot;font-size: 14px;&quot; face=&quot;Times New Roman&quot;&gt;Test dataset&lt;/font&gt;" style="rounded=1;whiteSpace=wrap;html=1;shadow=0;labelBackgroundColor=none;strokeWidth=1;fontFamily=Verdana;fontSize=8;align=center;" parent="77e6c97f196da883-3" vertex="1">
          <mxGeometry x="40" y="380" width="100" height="60" as="geometry" />
        </mxCell>
        <mxCell id="fh5AQjrK4AlLcC_H-wfN-16" value="&lt;font style=&quot;font-size: 14px;&quot; face=&quot;Times New Roman&quot;&gt;Validation&lt;/font&gt;&lt;div&gt;&lt;font size=&quot;3&quot; style=&quot;&quot; face=&quot;Times New Roman&quot;&gt;dataset&lt;/font&gt;&lt;/div&gt;" style="rounded=1;whiteSpace=wrap;html=1;shadow=0;labelBackgroundColor=none;strokeWidth=1;fontFamily=Verdana;fontSize=8;align=center;" parent="77e6c97f196da883-3" vertex="1">
          <mxGeometry x="40" y="470" width="100" height="60" as="geometry" />
        </mxCell>
        <mxCell id="fh5AQjrK4AlLcC_H-wfN-22" value="&lt;font style=&quot;font-size: 14px;&quot; face=&quot;Times New Roman&quot;&gt;Train dataset&lt;/font&gt;&lt;div&gt;&lt;font style=&quot;font-size: 14px;&quot; face=&quot;Times New Roman&quot;&gt;normalized&lt;/font&gt;&lt;/div&gt;" style="rounded=1;whiteSpace=wrap;html=1;shadow=0;labelBackgroundColor=none;strokeWidth=1;fontFamily=Verdana;fontSize=8;align=center;" parent="77e6c97f196da883-3" vertex="1">
          <mxGeometry x="300" y="290" width="100" height="60" as="geometry" />
        </mxCell>
        <mxCell id="fh5AQjrK4AlLcC_H-wfN-32" style="edgeStyle=orthogonalEdgeStyle;rounded=0;orthogonalLoop=1;jettySize=auto;html=1;exitX=0.75;exitY=0;exitDx=0;exitDy=0;entryX=0;entryY=0.5;entryDx=0;entryDy=0;fontFamily=Verdana;fontSize=8;fontColor=default;labelBackgroundColor=none;" parent="77e6c97f196da883-3" source="fh5AQjrK4AlLcC_H-wfN-25" target="fh5AQjrK4AlLcC_H-wfN-22" edge="1">
          <mxGeometry relative="1" as="geometry" />
        </mxCell>
        <mxCell id="fh5AQjrK4AlLcC_H-wfN-35" style="edgeStyle=orthogonalEdgeStyle;rounded=0;orthogonalLoop=1;jettySize=auto;html=1;exitX=0.75;exitY=1;exitDx=0;exitDy=0;entryX=0;entryY=0.5;entryDx=0;entryDy=0;fontFamily=Verdana;fontSize=8;fontColor=default;labelBackgroundColor=none;" parent="77e6c97f196da883-3" source="fh5AQjrK4AlLcC_H-wfN-25" target="fh5AQjrK4AlLcC_H-wfN-34" edge="1">
          <mxGeometry relative="1" as="geometry" />
        </mxCell>
        <mxCell id="fh5AQjrK4AlLcC_H-wfN-36" style="edgeStyle=orthogonalEdgeStyle;rounded=0;orthogonalLoop=1;jettySize=auto;html=1;exitX=1;exitY=0.5;exitDx=0;exitDy=0;entryX=0;entryY=0.5;entryDx=0;entryDy=0;fontFamily=Verdana;fontSize=8;fontColor=default;labelBackgroundColor=none;" parent="77e6c97f196da883-3" source="fh5AQjrK4AlLcC_H-wfN-25" target="fh5AQjrK4AlLcC_H-wfN-33" edge="1">
          <mxGeometry relative="1" as="geometry" />
        </mxCell>
        <mxCell id="fh5AQjrK4AlLcC_H-wfN-25" value="&lt;font face=&quot;Times New Roman&quot;&gt;&lt;span style=&quot;font-size: 14px;&quot;&gt;Imput missing numeric data&lt;/span&gt;&lt;/font&gt;" style="rounded=1;whiteSpace=wrap;html=1;shadow=0;labelBackgroundColor=none;strokeWidth=1;fontFamily=Verdana;fontSize=8;align=center;arcSize=50;" parent="77e6c97f196da883-3" vertex="1">
          <mxGeometry x="170" y="380" width="100" height="60" as="geometry" />
        </mxCell>
        <mxCell id="fh5AQjrK4AlLcC_H-wfN-29" style="edgeStyle=orthogonalEdgeStyle;rounded=0;orthogonalLoop=1;jettySize=auto;html=1;exitX=1;exitY=0.5;exitDx=0;exitDy=0;entryX=0.14;entryY=0.95;entryDx=0;entryDy=0;entryPerimeter=0;fontFamily=Verdana;fontSize=8;fontColor=default;labelBackgroundColor=none;" parent="77e6c97f196da883-3" source="fh5AQjrK4AlLcC_H-wfN-16" target="fh5AQjrK4AlLcC_H-wfN-25" edge="1">
          <mxGeometry relative="1" as="geometry" />
        </mxCell>
        <mxCell id="fh5AQjrK4AlLcC_H-wfN-31" style="edgeStyle=orthogonalEdgeStyle;rounded=0;orthogonalLoop=1;jettySize=auto;html=1;exitX=1;exitY=0.5;exitDx=0;exitDy=0;entryX=0.15;entryY=0.017;entryDx=0;entryDy=0;entryPerimeter=0;fontFamily=Verdana;fontSize=8;fontColor=default;labelBackgroundColor=none;" parent="77e6c97f196da883-3" source="fh5AQjrK4AlLcC_H-wfN-12" target="fh5AQjrK4AlLcC_H-wfN-25" edge="1">
          <mxGeometry relative="1" as="geometry" />
        </mxCell>
        <mxCell id="fh5AQjrK4AlLcC_H-wfN-33" value="&lt;font style=&quot;font-size: 14px;&quot; face=&quot;Times New Roman&quot;&gt;Test dataset&lt;/font&gt;" style="rounded=1;whiteSpace=wrap;html=1;shadow=0;labelBackgroundColor=none;strokeWidth=1;fontFamily=Verdana;fontSize=8;align=center;" parent="77e6c97f196da883-3" vertex="1">
          <mxGeometry x="300" y="380" width="100" height="60" as="geometry" />
        </mxCell>
        <mxCell id="fh5AQjrK4AlLcC_H-wfN-34" value="&lt;font style=&quot;font-size: 14px;&quot; face=&quot;Times New Roman&quot;&gt;Test dataset&lt;/font&gt;" style="rounded=1;whiteSpace=wrap;html=1;shadow=0;labelBackgroundColor=none;strokeWidth=1;fontFamily=Verdana;fontSize=8;align=center;" parent="77e6c97f196da883-3" vertex="1">
          <mxGeometry x="300" y="470" width="100" height="60" as="geometry" />
        </mxCell>
        <mxCell id="77e6c97f196da883-4" value="Model Training" style="swimlane;html=1;startSize=20;" parent="77e6c97f196da883-1" vertex="1">
          <mxGeometry x="570" y="20" width="1260" height="760" as="geometry" />
        </mxCell>
        <mxCell id="77e6c97f196da883-13" value="&lt;font size=&quot;3&quot; face=&quot;Times New Roman&quot;&gt;KNN&lt;/font&gt;" style="rhombus;whiteSpace=wrap;html=1;rounded=0;shadow=0;labelBackgroundColor=none;strokeWidth=1;fontFamily=Verdana;fontSize=8;align=center;" parent="77e6c97f196da883-4" vertex="1">
          <mxGeometry x="60" y="40" width="80" height="60" as="geometry" />
        </mxCell>
        <mxCell id="fh5AQjrK4AlLcC_H-wfN-37" value="&lt;font size=&quot;3&quot; face=&quot;Times New Roman&quot;&gt;LVQ&lt;/font&gt;" style="rhombus;whiteSpace=wrap;html=1;rounded=0;shadow=0;labelBackgroundColor=none;strokeWidth=1;fontFamily=Verdana;fontSize=8;align=center;" parent="77e6c97f196da883-4" vertex="1">
          <mxGeometry x="60" y="140" width="80" height="60" as="geometry" />
        </mxCell>
        <mxCell id="fh5AQjrK4AlLcC_H-wfN-38" value="&lt;font size=&quot;3&quot; face=&quot;Times New Roman&quot;&gt;AD&lt;/font&gt;" style="rhombus;whiteSpace=wrap;html=1;rounded=0;shadow=0;labelBackgroundColor=none;strokeWidth=1;fontFamily=Verdana;fontSize=8;align=center;" parent="77e6c97f196da883-4" vertex="1">
          <mxGeometry x="60" y="240" width="80" height="60" as="geometry" />
        </mxCell>
        <mxCell id="fh5AQjrK4AlLcC_H-wfN-39" value="&lt;font size=&quot;3&quot; face=&quot;Times New Roman&quot;&gt;MLP&lt;/font&gt;" style="rhombus;whiteSpace=wrap;html=1;rounded=0;shadow=0;labelBackgroundColor=none;strokeWidth=1;fontFamily=Verdana;fontSize=8;align=center;" parent="77e6c97f196da883-4" vertex="1">
          <mxGeometry x="60" y="340" width="80" height="60" as="geometry" />
        </mxCell>
        <mxCell id="fh5AQjrK4AlLcC_H-wfN-40" value="&lt;font size=&quot;3&quot; face=&quot;Times New Roman&quot;&gt;SVM&lt;/font&gt;" style="rhombus;whiteSpace=wrap;html=1;rounded=0;shadow=0;labelBackgroundColor=none;strokeWidth=1;fontFamily=Verdana;fontSize=8;align=center;" parent="77e6c97f196da883-4" vertex="1">
          <mxGeometry x="60" y="440" width="80" height="60" as="geometry" />
        </mxCell>
        <mxCell id="fh5AQjrK4AlLcC_H-wfN-41" value="&lt;font size=&quot;3&quot; face=&quot;Times New Roman&quot;&gt;RF&lt;/font&gt;" style="rhombus;whiteSpace=wrap;html=1;rounded=0;shadow=0;labelBackgroundColor=none;strokeWidth=1;fontFamily=Verdana;fontSize=8;align=center;" parent="77e6c97f196da883-4" vertex="1">
          <mxGeometry x="60" y="540" width="80" height="60" as="geometry" />
        </mxCell>
        <mxCell id="fh5AQjrK4AlLcC_H-wfN-42" value="&lt;font size=&quot;3&quot; face=&quot;Times New Roman&quot;&gt;Stacking&lt;/font&gt;" style="rhombus;whiteSpace=wrap;html=1;rounded=0;shadow=0;labelBackgroundColor=none;strokeWidth=1;fontFamily=Verdana;fontSize=8;align=center;" parent="77e6c97f196da883-4" vertex="1">
          <mxGeometry x="60" y="630" width="80" height="60" as="geometry" />
        </mxCell>
        <mxCell id="6m0kf4rlSynbOd0qpqZj-7" value="Great Parameters&amp;nbsp;" style="swimlane;html=1;startSize=20;" parent="77e6c97f196da883-4" vertex="1">
          <mxGeometry x="760" y="20" width="500" height="740" as="geometry" />
        </mxCell>
        <mxCell id="6m0kf4rlSynbOd0qpqZj-8" value="&lt;font style=&quot;font-size: 14px;&quot; face=&quot;Times New Roman&quot;&gt;Hyperparameters&lt;/font&gt;" style="swimlane;fontStyle=0;childLayout=stackLayout;horizontal=1;startSize=30;horizontalStack=0;resizeParent=1;resizeParentMax=0;resizeLast=0;collapsible=1;marginBottom=0;whiteSpace=wrap;html=1;rounded=1;shadow=0;strokeColor=default;strokeWidth=1;align=center;verticalAlign=middle;fontFamily=Verdana;fontSize=8;fontColor=default;labelBackgroundColor=none;fillColor=default;" parent="6m0kf4rlSynbOd0qpqZj-7" vertex="1">
          <mxGeometry x="320" y="25" width="150" height="90" as="geometry" />
        </mxCell>
        <mxCell id="6m0kf4rlSynbOd0qpqZj-9" value="&lt;div&gt;&lt;font face=&quot;Times New Roman&quot;&gt;&lt;span style=&quot;font-size: 12px;&quot;&gt;&quot;k neighbors&quot;:&lt;/span&gt;&lt;/font&gt;&lt;span style=&quot;font-size: 12px; font-family: &amp;quot;Times New Roman&amp;quot;; background-color: initial;&quot;&gt;&amp;nbsp;29&lt;/span&gt;&lt;/div&gt;&lt;div&gt;&lt;font face=&quot;Times New Roman&quot;&gt;&lt;span style=&quot;font-size: 12px;&quot;&gt;&amp;nbsp; &amp;nbsp; &amp;nbsp; &amp;nbsp; &amp;nbsp;&lt;/span&gt;&lt;/font&gt;&lt;/div&gt;" style="text;strokeColor=none;fillColor=none;align=left;verticalAlign=middle;spacingLeft=4;spacingRight=4;overflow=hidden;points=[[0,0.5],[1,0.5]];portConstraint=eastwest;rotatable=0;whiteSpace=wrap;html=1;fontFamily=Verdana;fontSize=8;fontColor=default;labelBackgroundColor=none;" parent="6m0kf4rlSynbOd0qpqZj-8" vertex="1">
          <mxGeometry y="30" width="150" height="30" as="geometry" />
        </mxCell>
        <mxCell id="6m0kf4rlSynbOd0qpqZj-10" value="&lt;div&gt;&lt;span style=&quot;font-family: &amp;quot;Times New Roman&amp;quot;; font-size: 12px;&quot;&gt;&quot;metric&quot;: [&quot;manhattan&quot;]&lt;/span&gt;&lt;br&gt;&lt;/div&gt;" style="text;strokeColor=none;fillColor=none;align=left;verticalAlign=middle;spacingLeft=4;spacingRight=4;overflow=hidden;points=[[0,0.5],[1,0.5]];portConstraint=eastwest;rotatable=0;whiteSpace=wrap;html=1;fontFamily=Verdana;fontSize=8;fontColor=default;labelBackgroundColor=none;" parent="6m0kf4rlSynbOd0qpqZj-8" vertex="1">
          <mxGeometry y="60" width="150" height="30" as="geometry" />
        </mxCell>
        <mxCell id="6m0kf4rlSynbOd0qpqZj-11" value="&lt;span style=&quot;font-family: &amp;quot;Times New Roman&amp;quot;; font-size: 14px;&quot;&gt;Hyperparameters&lt;/span&gt;" style="swimlane;fontStyle=0;childLayout=stackLayout;horizontal=1;startSize=30;horizontalStack=0;resizeParent=1;resizeParentMax=0;resizeLast=0;collapsible=1;marginBottom=0;whiteSpace=wrap;html=1;rounded=1;shadow=0;strokeColor=default;strokeWidth=1;align=center;verticalAlign=middle;fontFamily=Verdana;fontSize=8;fontColor=default;labelBackgroundColor=none;fillColor=default;" parent="6m0kf4rlSynbOd0qpqZj-7" vertex="1">
          <mxGeometry x="300" y="150" width="160" height="150" as="geometry" />
        </mxCell>
        <mxCell id="6m0kf4rlSynbOd0qpqZj-12" value="&lt;font face=&quot;Times New Roman&quot;&gt;&lt;span style=&quot;font-size: 12px;&quot;&gt;&quot;hidden layer sizes&quot;: (100,)&lt;/span&gt;&lt;/font&gt;" style="text;strokeColor=none;fillColor=none;align=left;verticalAlign=middle;spacingLeft=4;spacingRight=4;overflow=hidden;points=[[0,0.5],[1,0.5]];portConstraint=eastwest;rotatable=0;whiteSpace=wrap;html=1;fontFamily=Verdana;fontSize=8;fontColor=default;labelBackgroundColor=none;" parent="6m0kf4rlSynbOd0qpqZj-11" vertex="1">
          <mxGeometry y="30" width="160" height="20" as="geometry" />
        </mxCell>
        <mxCell id="6m0kf4rlSynbOd0qpqZj-13" value="&lt;div&gt;&lt;font face=&quot;Times New Roman&quot;&gt;&lt;span style=&quot;font-size: 12px;&quot;&gt;&quot;activation&quot;: [&quot;relu&quot;]&lt;/span&gt;&lt;/font&gt;&lt;br&gt;&lt;/div&gt;" style="text;strokeColor=none;fillColor=none;align=left;verticalAlign=middle;spacingLeft=4;spacingRight=4;overflow=hidden;points=[[0,0.5],[1,0.5]];portConstraint=eastwest;rotatable=0;whiteSpace=wrap;html=1;fontFamily=Verdana;fontSize=8;fontColor=default;labelBackgroundColor=none;" parent="6m0kf4rlSynbOd0qpqZj-11" vertex="1">
          <mxGeometry y="50" width="160" height="20" as="geometry" />
        </mxCell>
        <mxCell id="6m0kf4rlSynbOd0qpqZj-14" value="&lt;div&gt;&lt;font face=&quot;Times New Roman&quot;&gt;&lt;span style=&quot;font-size: 12px;&quot;&gt;&quot;solver&quot;: [&quot;adam&quot;]&lt;/span&gt;&lt;/font&gt;&lt;br&gt;&lt;/div&gt;" style="text;strokeColor=none;fillColor=none;align=left;verticalAlign=middle;spacingLeft=4;spacingRight=4;overflow=hidden;points=[[0,0.5],[1,0.5]];portConstraint=eastwest;rotatable=0;whiteSpace=wrap;html=1;fontFamily=Verdana;fontSize=8;fontColor=default;labelBackgroundColor=none;" parent="6m0kf4rlSynbOd0qpqZj-11" vertex="1">
          <mxGeometry y="70" width="160" height="20" as="geometry" />
        </mxCell>
        <mxCell id="6m0kf4rlSynbOd0qpqZj-15" value="&lt;div&gt;&lt;font face=&quot;Times New Roman&quot;&gt;&lt;span style=&quot;font-size: 12px;&quot;&gt;&quot;alpha&quot;: [0.0001]&lt;/span&gt;&lt;/font&gt;&lt;br&gt;&lt;/div&gt;" style="text;strokeColor=none;fillColor=none;align=left;verticalAlign=middle;spacingLeft=4;spacingRight=4;overflow=hidden;points=[[0,0.5],[1,0.5]];portConstraint=eastwest;rotatable=0;whiteSpace=wrap;html=1;fontFamily=Verdana;fontSize=8;fontColor=default;labelBackgroundColor=none;" parent="6m0kf4rlSynbOd0qpqZj-11" vertex="1">
          <mxGeometry y="90" width="160" height="20" as="geometry" />
        </mxCell>
        <mxCell id="6m0kf4rlSynbOd0qpqZj-16" value="&lt;div&gt;&lt;font face=&quot;Times New Roman&quot;&gt;&lt;span style=&quot;font-size: 12px;&quot;&gt;&quot;learning rate&quot;: [&quot;adaptive&quot;]&lt;/span&gt;&lt;/font&gt;&lt;br&gt;&lt;/div&gt;" style="text;strokeColor=none;fillColor=none;align=left;verticalAlign=middle;spacingLeft=4;spacingRight=4;overflow=hidden;points=[[0,0.5],[1,0.5]];portConstraint=eastwest;rotatable=0;whiteSpace=wrap;html=1;fontFamily=Verdana;fontSize=8;fontColor=default;labelBackgroundColor=none;" parent="6m0kf4rlSynbOd0qpqZj-11" vertex="1">
          <mxGeometry y="110" width="160" height="20" as="geometry" />
        </mxCell>
        <mxCell id="6m0kf4rlSynbOd0qpqZj-17" value="&lt;div&gt;&lt;font face=&quot;Times New Roman&quot;&gt;&lt;span style=&quot;font-size: 12px;&quot;&gt;&quot;max iter&quot;: 700&lt;/span&gt;&lt;/font&gt;&lt;br&gt;&lt;/div&gt;" style="text;strokeColor=none;fillColor=none;align=left;verticalAlign=middle;spacingLeft=4;spacingRight=4;overflow=hidden;points=[[0,0.5],[1,0.5]];portConstraint=eastwest;rotatable=0;whiteSpace=wrap;html=1;fontFamily=Verdana;fontSize=8;fontColor=default;labelBackgroundColor=none;" parent="6m0kf4rlSynbOd0qpqZj-11" vertex="1">
          <mxGeometry y="130" width="160" height="20" as="geometry" />
        </mxCell>
        <mxCell id="6m0kf4rlSynbOd0qpqZj-18" value="&lt;span style=&quot;font-family: &amp;quot;Times New Roman&amp;quot;; font-size: 14px;&quot;&gt;Hyperparameters&lt;/span&gt;" style="swimlane;fontStyle=0;childLayout=stackLayout;horizontal=1;startSize=30;horizontalStack=0;resizeParent=1;resizeParentMax=0;resizeLast=0;collapsible=1;marginBottom=0;whiteSpace=wrap;html=1;rounded=1;shadow=0;strokeColor=default;strokeWidth=1;align=center;verticalAlign=middle;fontFamily=Verdana;fontSize=8;fontColor=default;labelBackgroundColor=none;fillColor=default;" parent="6m0kf4rlSynbOd0qpqZj-7" vertex="1">
          <mxGeometry x="70" y="510" width="150" height="90" as="geometry" />
        </mxCell>
        <mxCell id="6m0kf4rlSynbOd0qpqZj-19" value="&lt;font face=&quot;Times New Roman&quot;&gt;&lt;span style=&quot;font-size: 12px;&quot;&gt;&quot;kernel&quot;: [&quot;rbf&quot;]&lt;/span&gt;&lt;/font&gt;" style="text;strokeColor=none;fillColor=none;align=left;verticalAlign=middle;spacingLeft=4;spacingRight=4;overflow=hidden;points=[[0,0.5],[1,0.5]];portConstraint=eastwest;rotatable=0;whiteSpace=wrap;html=1;fontFamily=Verdana;fontSize=8;fontColor=default;labelBackgroundColor=none;" parent="6m0kf4rlSynbOd0qpqZj-18" vertex="1">
          <mxGeometry y="30" width="150" height="20" as="geometry" />
        </mxCell>
        <mxCell id="6m0kf4rlSynbOd0qpqZj-20" value="&lt;div&gt;&lt;font face=&quot;Times New Roman&quot;&gt;&lt;span style=&quot;font-size: 12px;&quot;&gt;&quot;C&quot;: [100]&lt;/span&gt;&lt;/font&gt;&lt;br&gt;&lt;/div&gt;" style="text;strokeColor=none;fillColor=none;align=left;verticalAlign=middle;spacingLeft=4;spacingRight=4;overflow=hidden;points=[[0,0.5],[1,0.5]];portConstraint=eastwest;rotatable=0;whiteSpace=wrap;html=1;fontFamily=Verdana;fontSize=8;fontColor=default;labelBackgroundColor=none;" parent="6m0kf4rlSynbOd0qpqZj-18" vertex="1">
          <mxGeometry y="50" width="150" height="20" as="geometry" />
        </mxCell>
        <mxCell id="6m0kf4rlSynbOd0qpqZj-21" value="&lt;div&gt;&lt;font face=&quot;Times New Roman&quot;&gt;&lt;span style=&quot;font-size: 12px;&quot;&gt;&quot;gamma&quot;:[2]&lt;/span&gt;&lt;/font&gt;&lt;br&gt;&lt;/div&gt;" style="text;strokeColor=none;fillColor=none;align=left;verticalAlign=middle;spacingLeft=4;spacingRight=4;overflow=hidden;points=[[0,0.5],[1,0.5]];portConstraint=eastwest;rotatable=0;whiteSpace=wrap;html=1;fontFamily=Verdana;fontSize=8;fontColor=default;labelBackgroundColor=none;" parent="6m0kf4rlSynbOd0qpqZj-18" vertex="1">
          <mxGeometry y="70" width="150" height="20" as="geometry" />
        </mxCell>
        <mxCell id="6m0kf4rlSynbOd0qpqZj-22" value="&lt;span style=&quot;font-family: &amp;quot;Times New Roman&amp;quot;; font-size: 14px;&quot;&gt;Hyperparameters&lt;/span&gt;" style="swimlane;fontStyle=0;childLayout=stackLayout;horizontal=1;startSize=30;horizontalStack=0;resizeParent=1;resizeParentMax=0;resizeLast=0;collapsible=1;marginBottom=0;whiteSpace=wrap;html=1;rounded=1;shadow=0;strokeColor=default;strokeWidth=1;align=center;verticalAlign=middle;fontFamily=Verdana;fontSize=8;fontColor=default;labelBackgroundColor=none;fillColor=default;glass=0;" parent="6m0kf4rlSynbOd0qpqZj-7" vertex="1">
          <mxGeometry x="20" y="70" width="250" height="100" as="geometry" />
        </mxCell>
        <mxCell id="6m0kf4rlSynbOd0qpqZj-23" value="&lt;font face=&quot;Times New Roman&quot;&gt;&lt;span style=&quot;font-size: 12px;&quot;&gt;&quot;prototype n per class&quot;: 3&lt;/span&gt;&lt;/font&gt;" style="text;strokeColor=none;fillColor=none;align=left;verticalAlign=middle;spacingLeft=4;spacingRight=4;overflow=hidden;points=[[0,0.5],[1,0.5]];portConstraint=eastwest;rotatable=0;whiteSpace=wrap;html=1;fontFamily=Verdana;fontSize=8;fontColor=default;labelBackgroundColor=none;" parent="6m0kf4rlSynbOd0qpqZj-22" vertex="1">
          <mxGeometry y="30" width="250" height="20" as="geometry" />
        </mxCell>
        <mxCell id="6m0kf4rlSynbOd0qpqZj-24" value="&lt;div&gt;&lt;font face=&quot;Times New Roman&quot;&gt;&lt;span style=&quot;font-size: 12px;&quot;&gt;&quot;distance type&quot;: [&quot;euclidean&quot;]&lt;/span&gt;&lt;/font&gt;&lt;br&gt;&lt;/div&gt;" style="text;strokeColor=none;fillColor=none;align=left;verticalAlign=middle;spacingLeft=4;spacingRight=4;overflow=hidden;points=[[0,0.5],[1,0.5]];portConstraint=eastwest;rotatable=0;whiteSpace=wrap;html=1;fontFamily=Verdana;fontSize=8;fontColor=default;labelBackgroundColor=none;" parent="6m0kf4rlSynbOd0qpqZj-22" vertex="1">
          <mxGeometry y="50" width="250" height="30" as="geometry" />
        </mxCell>
        <mxCell id="6m0kf4rlSynbOd0qpqZj-25" value="&lt;div&gt;&lt;font face=&quot;Times New Roman&quot;&gt;&lt;span style=&quot;font-size: 12px;&quot;&gt;&quot;solver params&quot;: {&quot;max runs&quot;: 5,&quot;step size&quot;: 0.1}&lt;/span&gt;&lt;/font&gt;&lt;/div&gt;" style="text;strokeColor=none;fillColor=none;align=left;verticalAlign=middle;spacingLeft=4;spacingRight=4;overflow=hidden;points=[[0,0.5],[1,0.5]];portConstraint=eastwest;rotatable=0;whiteSpace=wrap;html=1;fontFamily=Verdana;fontSize=8;fontColor=default;labelBackgroundColor=none;" parent="6m0kf4rlSynbOd0qpqZj-22" vertex="1">
          <mxGeometry y="80" width="250" height="20" as="geometry" />
        </mxCell>
        <mxCell id="6m0kf4rlSynbOd0qpqZj-26" value="&lt;span style=&quot;font-family: &amp;quot;Times New Roman&amp;quot;; font-size: 14px;&quot;&gt;Hyperparameters&lt;/span&gt;" style="swimlane;fontStyle=0;childLayout=stackLayout;horizontal=1;startSize=30;horizontalStack=0;resizeParent=1;resizeParentMax=0;resizeLast=0;collapsible=1;marginBottom=0;whiteSpace=wrap;html=1;rounded=1;shadow=0;strokeColor=default;strokeWidth=1;align=center;verticalAlign=middle;fontFamily=Verdana;fontSize=8;fontColor=default;labelBackgroundColor=none;fillColor=default;" parent="6m0kf4rlSynbOd0qpqZj-7" vertex="1">
          <mxGeometry x="25" y="280" width="135" height="170" as="geometry">
            <mxRectangle x="25" y="280" width="140" height="30" as="alternateBounds" />
          </mxGeometry>
        </mxCell>
        <mxCell id="6m0kf4rlSynbOd0qpqZj-27" value="&lt;font face=&quot;Times New Roman&quot;&gt;&lt;span style=&quot;font-size: 12px;&quot;&gt;&quot;criterion&quot;: [&quot;gini&quot;]&lt;/span&gt;&lt;/font&gt;" style="text;strokeColor=none;fillColor=none;align=left;verticalAlign=middle;spacingLeft=4;spacingRight=4;overflow=hidden;points=[[0,0.5],[1,0.5]];portConstraint=eastwest;rotatable=0;whiteSpace=wrap;html=1;fontFamily=Verdana;fontSize=8;fontColor=default;labelBackgroundColor=none;" parent="6m0kf4rlSynbOd0qpqZj-26" vertex="1">
          <mxGeometry y="30" width="135" height="20" as="geometry" />
        </mxCell>
        <mxCell id="6m0kf4rlSynbOd0qpqZj-28" value="&lt;div&gt;&lt;font face=&quot;Times New Roman&quot;&gt;&lt;span style=&quot;font-size: 12px;&quot;&gt;&quot;splitter&quot;: [&quot;best&quot;]&lt;/span&gt;&lt;/font&gt;&lt;br&gt;&lt;/div&gt;" style="text;strokeColor=none;fillColor=none;align=left;verticalAlign=middle;spacingLeft=4;spacingRight=4;overflow=hidden;points=[[0,0.5],[1,0.5]];portConstraint=eastwest;rotatable=0;whiteSpace=wrap;html=1;fontFamily=Verdana;fontSize=8;fontColor=default;labelBackgroundColor=none;" parent="6m0kf4rlSynbOd0qpqZj-26" vertex="1">
          <mxGeometry y="50" width="135" height="20" as="geometry" />
        </mxCell>
        <mxCell id="6m0kf4rlSynbOd0qpqZj-29" value="&lt;div&gt;&lt;font face=&quot;Times New Roman&quot;&gt;&lt;span style=&quot;font-size: 12px;&quot;&gt;&quot;max depth&quot;: 305&lt;/span&gt;&lt;/font&gt;&lt;br&gt;&lt;/div&gt;" style="text;strokeColor=none;fillColor=none;align=left;verticalAlign=middle;spacingLeft=4;spacingRight=4;overflow=hidden;points=[[0,0.5],[1,0.5]];portConstraint=eastwest;rotatable=0;whiteSpace=wrap;html=1;fontFamily=Verdana;fontSize=8;fontColor=default;labelBackgroundColor=none;" parent="6m0kf4rlSynbOd0qpqZj-26" vertex="1">
          <mxGeometry y="70" width="135" height="30" as="geometry" />
        </mxCell>
        <mxCell id="6m0kf4rlSynbOd0qpqZj-30" value="&lt;div&gt;&lt;font face=&quot;Times New Roman&quot;&gt;&lt;span style=&quot;font-size: 12px;&quot;&gt;&quot;min samples leaf&quot;:&amp;nbsp; 1&lt;/span&gt;&lt;/font&gt;&lt;br&gt;&lt;/div&gt;" style="text;strokeColor=none;fillColor=none;align=left;verticalAlign=middle;spacingLeft=4;spacingRight=4;overflow=hidden;points=[[0,0.5],[1,0.5]];portConstraint=eastwest;rotatable=0;whiteSpace=wrap;html=1;fontFamily=Verdana;fontSize=8;fontColor=default;labelBackgroundColor=none;" parent="6m0kf4rlSynbOd0qpqZj-26" vertex="1">
          <mxGeometry y="100" width="135" height="20" as="geometry" />
        </mxCell>
        <mxCell id="6m0kf4rlSynbOd0qpqZj-31" value="&lt;div&gt;&lt;font face=&quot;Times New Roman&quot;&gt;&lt;span style=&quot;font-size: 12px;&quot;&gt;&quot;max features&quot;: [&quot;log2&quot;]&lt;/span&gt;&lt;/font&gt;&lt;br&gt;&lt;/div&gt;" style="text;strokeColor=none;fillColor=none;align=left;verticalAlign=middle;spacingLeft=4;spacingRight=4;overflow=hidden;points=[[0,0.5],[1,0.5]];portConstraint=eastwest;rotatable=0;whiteSpace=wrap;html=1;fontFamily=Verdana;fontSize=8;fontColor=default;labelBackgroundColor=none;" parent="6m0kf4rlSynbOd0qpqZj-26" vertex="1">
          <mxGeometry y="120" width="135" height="20" as="geometry" />
        </mxCell>
        <mxCell id="6m0kf4rlSynbOd0qpqZj-32" value="&lt;div&gt;&lt;font face=&quot;Times New Roman&quot;&gt;&lt;span style=&quot;font-size: 12px;&quot;&gt;&quot;max leaf nodes&quot;: 4952&lt;/span&gt;&lt;/font&gt;&lt;br&gt;&lt;/div&gt;" style="text;strokeColor=none;fillColor=none;align=left;verticalAlign=middle;spacingLeft=4;spacingRight=4;overflow=hidden;points=[[0,0.5],[1,0.5]];portConstraint=eastwest;rotatable=0;whiteSpace=wrap;html=1;fontFamily=Verdana;fontSize=8;fontColor=default;labelBackgroundColor=none;" parent="6m0kf4rlSynbOd0qpqZj-26" vertex="1">
          <mxGeometry y="140" width="135" height="30" as="geometry" />
        </mxCell>
        <mxCell id="6m0kf4rlSynbOd0qpqZj-39" value="&lt;span style=&quot;font-size: 14px;&quot;&gt;&lt;font face=&quot;Times New Roman&quot;&gt;Hyperparameters&lt;/font&gt;&lt;/span&gt;" style="swimlane;fontStyle=0;childLayout=stackLayout;horizontal=1;startSize=30;horizontalStack=0;resizeParent=1;resizeParentMax=0;resizeLast=0;collapsible=1;marginBottom=0;whiteSpace=wrap;html=1;rounded=1;shadow=0;strokeColor=default;strokeWidth=1;align=center;verticalAlign=middle;fontFamily=Verdana;fontSize=8;fontColor=default;labelBackgroundColor=none;fillColor=default;" parent="6m0kf4rlSynbOd0qpqZj-7" vertex="1">
          <mxGeometry x="300" y="334" width="150" height="190" as="geometry" />
        </mxCell>
        <mxCell id="6m0kf4rlSynbOd0qpqZj-40" value="&lt;font face=&quot;Times New Roman&quot;&gt;&lt;span style=&quot;font-size: 12px;&quot;&gt;&quot;n estimators&quot;: 515&lt;/span&gt;&lt;/font&gt;" style="text;strokeColor=none;fillColor=none;align=left;verticalAlign=middle;spacingLeft=4;spacingRight=4;overflow=hidden;points=[[0,0.5],[1,0.5]];portConstraint=eastwest;rotatable=0;whiteSpace=wrap;html=1;fontFamily=Verdana;fontSize=8;fontColor=default;labelBackgroundColor=none;" parent="6m0kf4rlSynbOd0qpqZj-39" vertex="1">
          <mxGeometry y="30" width="150" height="30" as="geometry" />
        </mxCell>
        <mxCell id="6m0kf4rlSynbOd0qpqZj-41" value="&lt;div&gt;&lt;font face=&quot;Times New Roman&quot;&gt;&lt;span style=&quot;font-size: 12px;&quot;&gt;&quot;criterion&quot;: [&quot;entropy&quot;]&lt;/span&gt;&lt;/font&gt;&lt;br&gt;&lt;/div&gt;" style="text;strokeColor=none;fillColor=none;align=left;verticalAlign=middle;spacingLeft=4;spacingRight=4;overflow=hidden;points=[[0,0.5],[1,0.5]];portConstraint=eastwest;rotatable=0;whiteSpace=wrap;html=1;fontFamily=Verdana;fontSize=8;fontColor=default;labelBackgroundColor=none;" parent="6m0kf4rlSynbOd0qpqZj-39" vertex="1">
          <mxGeometry y="60" width="150" height="30" as="geometry" />
        </mxCell>
        <mxCell id="6m0kf4rlSynbOd0qpqZj-42" value="&lt;div&gt;&lt;font face=&quot;Times New Roman&quot;&gt;&lt;span style=&quot;font-size: 12px;&quot;&gt;&quot;max depth&quot;: 43&lt;/span&gt;&lt;/font&gt;&lt;br&gt;&lt;/div&gt;" style="text;strokeColor=none;fillColor=none;align=left;verticalAlign=middle;spacingLeft=4;spacingRight=4;overflow=hidden;points=[[0,0.5],[1,0.5]];portConstraint=eastwest;rotatable=0;whiteSpace=wrap;html=1;fontFamily=Verdana;fontSize=8;fontColor=default;labelBackgroundColor=none;" parent="6m0kf4rlSynbOd0qpqZj-39" vertex="1">
          <mxGeometry y="90" width="150" height="40" as="geometry" />
        </mxCell>
        <mxCell id="6m0kf4rlSynbOd0qpqZj-43" value="&lt;div&gt;&lt;font face=&quot;Times New Roman&quot;&gt;&lt;span style=&quot;font-size: 12px;&quot;&gt;&quot;min samples split&quot;: 19&lt;/span&gt;&lt;/font&gt;&lt;br&gt;&lt;/div&gt;" style="text;strokeColor=none;fillColor=none;align=left;verticalAlign=middle;spacingLeft=4;spacingRight=4;overflow=hidden;points=[[0,0.5],[1,0.5]];portConstraint=eastwest;rotatable=0;whiteSpace=wrap;html=1;fontFamily=Verdana;fontSize=8;fontColor=default;labelBackgroundColor=none;" parent="6m0kf4rlSynbOd0qpqZj-39" vertex="1">
          <mxGeometry y="130" width="150" height="30" as="geometry" />
        </mxCell>
        <mxCell id="6m0kf4rlSynbOd0qpqZj-44" value="&lt;div&gt;&lt;font face=&quot;Times New Roman&quot;&gt;&lt;span style=&quot;font-size: 12px;&quot;&gt;&quot;min samples leaf&quot;: 8&lt;/span&gt;&lt;/font&gt;&lt;br&gt;&lt;/div&gt;" style="text;strokeColor=none;fillColor=none;align=left;verticalAlign=middle;spacingLeft=4;spacingRight=4;overflow=hidden;points=[[0,0.5],[1,0.5]];portConstraint=eastwest;rotatable=0;whiteSpace=wrap;html=1;fontFamily=Verdana;fontSize=8;fontColor=default;labelBackgroundColor=none;" parent="6m0kf4rlSynbOd0qpqZj-39" vertex="1">
          <mxGeometry y="160" width="150" height="30" as="geometry" />
        </mxCell>
        <mxCell id="fh5AQjrK4AlLcC_H-wfN-7" style="edgeStyle=orthogonalEdgeStyle;rounded=0;orthogonalLoop=1;jettySize=auto;html=1;entryX=0;entryY=0.5;entryDx=0;entryDy=0;" parent="77e6c97f196da883-1" source="fh5AQjrK4AlLcC_H-wfN-1" target="fh5AQjrK4AlLcC_H-wfN-3" edge="1">
          <mxGeometry relative="1" as="geometry" />
        </mxCell>
        <mxCell id="fh5AQjrK4AlLcC_H-wfN-47" style="edgeStyle=orthogonalEdgeStyle;rounded=0;orthogonalLoop=1;jettySize=auto;html=1;exitX=1;exitY=0.5;exitDx=0;exitDy=0;entryX=0;entryY=0.5;entryDx=0;entryDy=0;fontFamily=Verdana;fontSize=8;fontColor=default;labelBackgroundColor=none;" parent="77e6c97f196da883-1" source="fh5AQjrK4AlLcC_H-wfN-34" target="77e6c97f196da883-13" edge="1">
          <mxGeometry relative="1" as="geometry" />
        </mxCell>
        <mxCell id="fh5AQjrK4AlLcC_H-wfN-48" style="edgeStyle=orthogonalEdgeStyle;rounded=0;orthogonalLoop=1;jettySize=auto;html=1;exitX=1;exitY=0.5;exitDx=0;exitDy=0;entryX=0;entryY=0.5;entryDx=0;entryDy=0;fontFamily=Verdana;fontSize=8;fontColor=default;labelBackgroundColor=none;" parent="77e6c97f196da883-1" source="fh5AQjrK4AlLcC_H-wfN-34" target="fh5AQjrK4AlLcC_H-wfN-37" edge="1">
          <mxGeometry relative="1" as="geometry" />
        </mxCell>
        <mxCell id="fh5AQjrK4AlLcC_H-wfN-49" style="edgeStyle=orthogonalEdgeStyle;rounded=0;orthogonalLoop=1;jettySize=auto;html=1;exitX=1;exitY=0.5;exitDx=0;exitDy=0;entryX=0;entryY=0.5;entryDx=0;entryDy=0;fontFamily=Verdana;fontSize=8;fontColor=default;labelBackgroundColor=none;" parent="77e6c97f196da883-1" source="fh5AQjrK4AlLcC_H-wfN-34" target="fh5AQjrK4AlLcC_H-wfN-38" edge="1">
          <mxGeometry relative="1" as="geometry" />
        </mxCell>
        <mxCell id="fh5AQjrK4AlLcC_H-wfN-50" style="edgeStyle=orthogonalEdgeStyle;rounded=0;orthogonalLoop=1;jettySize=auto;html=1;exitX=1;exitY=0.5;exitDx=0;exitDy=0;entryX=0;entryY=0.5;entryDx=0;entryDy=0;fontFamily=Verdana;fontSize=8;fontColor=default;labelBackgroundColor=none;" parent="77e6c97f196da883-1" source="fh5AQjrK4AlLcC_H-wfN-34" target="fh5AQjrK4AlLcC_H-wfN-39" edge="1">
          <mxGeometry relative="1" as="geometry" />
        </mxCell>
        <mxCell id="fh5AQjrK4AlLcC_H-wfN-51" style="edgeStyle=orthogonalEdgeStyle;rounded=0;orthogonalLoop=1;jettySize=auto;html=1;exitX=1;exitY=0.5;exitDx=0;exitDy=0;entryX=0;entryY=0.5;entryDx=0;entryDy=0;fontFamily=Verdana;fontSize=8;fontColor=default;labelBackgroundColor=none;" parent="77e6c97f196da883-1" source="fh5AQjrK4AlLcC_H-wfN-34" target="fh5AQjrK4AlLcC_H-wfN-40" edge="1">
          <mxGeometry relative="1" as="geometry" />
        </mxCell>
        <mxCell id="fh5AQjrK4AlLcC_H-wfN-52" style="edgeStyle=orthogonalEdgeStyle;rounded=0;orthogonalLoop=1;jettySize=auto;html=1;exitX=1;exitY=0.5;exitDx=0;exitDy=0;entryX=0;entryY=0.5;entryDx=0;entryDy=0;fontFamily=Verdana;fontSize=8;fontColor=default;labelBackgroundColor=none;" parent="77e6c97f196da883-1" source="fh5AQjrK4AlLcC_H-wfN-34" target="fh5AQjrK4AlLcC_H-wfN-41" edge="1">
          <mxGeometry relative="1" as="geometry" />
        </mxCell>
        <mxCell id="fh5AQjrK4AlLcC_H-wfN-53" style="edgeStyle=orthogonalEdgeStyle;rounded=0;orthogonalLoop=1;jettySize=auto;html=1;exitX=1;exitY=0.5;exitDx=0;exitDy=0;entryX=0;entryY=0.5;entryDx=0;entryDy=0;fontFamily=Verdana;fontSize=8;fontColor=default;labelBackgroundColor=none;" parent="77e6c97f196da883-1" source="fh5AQjrK4AlLcC_H-wfN-34" target="fh5AQjrK4AlLcC_H-wfN-42" edge="1">
          <mxGeometry relative="1" as="geometry" />
        </mxCell>
        <mxCell id="fh5AQjrK4AlLcC_H-wfN-55" style="edgeStyle=orthogonalEdgeStyle;rounded=0;orthogonalLoop=1;jettySize=auto;html=1;exitX=1;exitY=0.5;exitDx=0;exitDy=0;entryX=0;entryY=0.5;entryDx=0;entryDy=0;fontFamily=Verdana;fontSize=8;fontColor=default;labelBackgroundColor=none;" parent="77e6c97f196da883-1" source="fh5AQjrK4AlLcC_H-wfN-22" target="fh5AQjrK4AlLcC_H-wfN-37" edge="1">
          <mxGeometry relative="1" as="geometry" />
        </mxCell>
        <mxCell id="fh5AQjrK4AlLcC_H-wfN-56" style="edgeStyle=orthogonalEdgeStyle;rounded=0;orthogonalLoop=1;jettySize=auto;html=1;exitX=1;exitY=0.5;exitDx=0;exitDy=0;entryX=0;entryY=0.5;entryDx=0;entryDy=0;fontFamily=Verdana;fontSize=8;fontColor=default;labelBackgroundColor=none;" parent="77e6c97f196da883-1" source="fh5AQjrK4AlLcC_H-wfN-33" target="77e6c97f196da883-13" edge="1">
          <mxGeometry relative="1" as="geometry" />
        </mxCell>
        <mxCell id="fh5AQjrK4AlLcC_H-wfN-131" value="Best Models" style="swimlane;html=1;startSize=20;" parent="77e6c97f196da883-1" vertex="1">
          <mxGeometry x="1830" y="20" width="160" height="760" as="geometry">
            <mxRectangle x="1350" y="60" width="80" height="30" as="alternateBounds" />
          </mxGeometry>
        </mxCell>
        <mxCell id="6m0kf4rlSynbOd0qpqZj-111" value="&lt;font size=&quot;3&quot; face=&quot;Times New Roman&quot;&gt;KNN&lt;/font&gt;" style="rhombus;whiteSpace=wrap;html=1;rounded=0;shadow=0;labelBackgroundColor=none;strokeWidth=1;fontFamily=Verdana;fontSize=8;align=center;" parent="fh5AQjrK4AlLcC_H-wfN-131" vertex="1">
          <mxGeometry x="40" y="40" width="80" height="60" as="geometry" />
        </mxCell>
        <mxCell id="6m0kf4rlSynbOd0qpqZj-112" value="&lt;font size=&quot;3&quot; face=&quot;Times New Roman&quot;&gt;LVQ&lt;/font&gt;" style="rhombus;whiteSpace=wrap;html=1;rounded=0;shadow=0;labelBackgroundColor=none;strokeWidth=1;fontFamily=Verdana;fontSize=8;align=center;" parent="fh5AQjrK4AlLcC_H-wfN-131" vertex="1">
          <mxGeometry x="40" y="140" width="80" height="60" as="geometry" />
        </mxCell>
        <mxCell id="6m0kf4rlSynbOd0qpqZj-113" value="&lt;font size=&quot;3&quot; face=&quot;Times New Roman&quot;&gt;AD&lt;/font&gt;" style="rhombus;whiteSpace=wrap;html=1;rounded=0;shadow=0;labelBackgroundColor=none;strokeWidth=1;fontFamily=Verdana;fontSize=8;align=center;" parent="fh5AQjrK4AlLcC_H-wfN-131" vertex="1">
          <mxGeometry x="40" y="240" width="80" height="60" as="geometry" />
        </mxCell>
        <mxCell id="6m0kf4rlSynbOd0qpqZj-114" value="&lt;font size=&quot;3&quot; face=&quot;Times New Roman&quot;&gt;MLP&lt;/font&gt;" style="rhombus;whiteSpace=wrap;html=1;rounded=0;shadow=0;labelBackgroundColor=none;strokeWidth=1;fontFamily=Verdana;fontSize=8;align=center;" parent="fh5AQjrK4AlLcC_H-wfN-131" vertex="1">
          <mxGeometry x="40" y="340" width="80" height="60" as="geometry" />
        </mxCell>
        <mxCell id="6m0kf4rlSynbOd0qpqZj-115" value="&lt;font size=&quot;3&quot; face=&quot;Times New Roman&quot;&gt;SVM&lt;/font&gt;" style="rhombus;whiteSpace=wrap;html=1;rounded=0;shadow=0;labelBackgroundColor=none;strokeWidth=1;fontFamily=Verdana;fontSize=8;align=center;" parent="fh5AQjrK4AlLcC_H-wfN-131" vertex="1">
          <mxGeometry x="40" y="440" width="80" height="60" as="geometry" />
        </mxCell>
        <mxCell id="6m0kf4rlSynbOd0qpqZj-116" value="&lt;font size=&quot;3&quot; face=&quot;Times New Roman&quot;&gt;RF&lt;/font&gt;" style="rhombus;whiteSpace=wrap;html=1;rounded=0;shadow=0;labelBackgroundColor=none;strokeWidth=1;fontFamily=Verdana;fontSize=8;align=center;" parent="fh5AQjrK4AlLcC_H-wfN-131" vertex="1">
          <mxGeometry x="40" y="540" width="80" height="60" as="geometry" />
        </mxCell>
        <mxCell id="6m0kf4rlSynbOd0qpqZj-117" value="&lt;font size=&quot;3&quot; face=&quot;Times New Roman&quot;&gt;Stacking&lt;/font&gt;" style="rhombus;whiteSpace=wrap;html=1;rounded=0;shadow=0;labelBackgroundColor=none;strokeWidth=1;fontFamily=Verdana;fontSize=8;align=center;" parent="fh5AQjrK4AlLcC_H-wfN-131" vertex="1">
          <mxGeometry x="40" y="630" width="80" height="60" as="geometry" />
        </mxCell>
        <mxCell id="6m0kf4rlSynbOd0qpqZj-87" value="Tests" style="swimlane;html=1;startSize=20;" parent="77e6c97f196da883-1" vertex="1">
          <mxGeometry x="1990" y="20" width="1000" height="760" as="geometry">
            <mxRectangle x="1350" y="60" width="80" height="30" as="alternateBounds" />
          </mxGeometry>
        </mxCell>
        <mxCell id="6m0kf4rlSynbOd0qpqZj-98" value="&lt;font face=&quot;Times New Roman&quot;&gt;Classifiers&amp;nbsp;&lt;/font&gt;&lt;div&gt;&lt;font face=&quot;Times New Roman&quot;&gt;Comparisons&lt;/font&gt;&lt;/div&gt;" style="ellipse;whiteSpace=wrap;html=1;" parent="6m0kf4rlSynbOd0qpqZj-87" vertex="1">
          <mxGeometry x="40" y="330" width="120" height="80" as="geometry" />
        </mxCell>
        <mxCell id="6m0kf4rlSynbOd0qpqZj-157" style="edgeStyle=orthogonalEdgeStyle;curved=1;rounded=0;orthogonalLoop=1;jettySize=auto;html=1;exitX=1;exitY=0.25;exitDx=0;exitDy=0;entryX=0;entryY=0.5;entryDx=0;entryDy=0;" parent="77e6c97f196da883-1" source="6m0kf4rlSynbOd0qpqZj-8" target="6m0kf4rlSynbOd0qpqZj-111" edge="1">
          <mxGeometry relative="1" as="geometry" />
        </mxCell>
        <mxCell id="6m0kf4rlSynbOd0qpqZj-158" style="edgeStyle=orthogonalEdgeStyle;curved=1;rounded=0;orthogonalLoop=1;jettySize=auto;html=1;exitX=1;exitY=0.25;exitDx=0;exitDy=0;entryX=0;entryY=0.5;entryDx=0;entryDy=0;" parent="77e6c97f196da883-1" source="6m0kf4rlSynbOd0qpqZj-22" target="6m0kf4rlSynbOd0qpqZj-112" edge="1">
          <mxGeometry relative="1" as="geometry">
            <Array as="points">
              <mxPoint x="1600" y="170" />
              <mxPoint x="1810" y="170" />
              <mxPoint x="1810" y="190" />
            </Array>
          </mxGeometry>
        </mxCell>
        <mxCell id="6m0kf4rlSynbOd0qpqZj-159" style="edgeStyle=orthogonalEdgeStyle;curved=1;rounded=0;orthogonalLoop=1;jettySize=auto;html=1;exitX=1;exitY=0.5;exitDx=0;exitDy=0;entryX=0;entryY=0.5;entryDx=0;entryDy=0;" parent="77e6c97f196da883-1" source="6m0kf4rlSynbOd0qpqZj-12" target="6m0kf4rlSynbOd0qpqZj-114" edge="1">
          <mxGeometry relative="1" as="geometry" />
        </mxCell>
        <mxCell id="6m0kf4rlSynbOd0qpqZj-160" style="edgeStyle=orthogonalEdgeStyle;curved=1;rounded=0;orthogonalLoop=1;jettySize=auto;html=1;exitX=1;exitY=0.5;exitDx=0;exitDy=0;entryX=0;entryY=0.5;entryDx=0;entryDy=0;" parent="77e6c97f196da883-1" source="6m0kf4rlSynbOd0qpqZj-27" target="6m0kf4rlSynbOd0qpqZj-113" edge="1">
          <mxGeometry relative="1" as="geometry">
            <Array as="points">
              <mxPoint x="1820" y="360" />
              <mxPoint x="1820" y="290" />
            </Array>
          </mxGeometry>
        </mxCell>
        <mxCell id="6m0kf4rlSynbOd0qpqZj-161" style="edgeStyle=orthogonalEdgeStyle;curved=1;rounded=0;orthogonalLoop=1;jettySize=auto;html=1;exitX=1;exitY=0.5;exitDx=0;exitDy=0;entryX=0;entryY=0.5;entryDx=0;entryDy=0;" parent="77e6c97f196da883-1" source="6m0kf4rlSynbOd0qpqZj-40" target="6m0kf4rlSynbOd0qpqZj-116" edge="1">
          <mxGeometry relative="1" as="geometry" />
        </mxCell>
        <mxCell id="6m0kf4rlSynbOd0qpqZj-162" style="edgeStyle=orthogonalEdgeStyle;curved=1;rounded=0;orthogonalLoop=1;jettySize=auto;html=1;exitX=1;exitY=0.25;exitDx=0;exitDy=0;entryX=0;entryY=0.5;entryDx=0;entryDy=0;" parent="77e6c97f196da883-1" source="6m0kf4rlSynbOd0qpqZj-18" target="6m0kf4rlSynbOd0qpqZj-115" edge="1">
          <mxGeometry relative="1" as="geometry">
            <Array as="points">
              <mxPoint x="1550" y="590" />
              <mxPoint x="1810" y="590" />
              <mxPoint x="1810" y="490" />
            </Array>
          </mxGeometry>
        </mxCell>
        <mxCell id="6m0kf4rlSynbOd0qpqZj-164" style="edgeStyle=none;rounded=0;orthogonalLoop=1;jettySize=auto;html=1;exitX=1;exitY=0.5;exitDx=0;exitDy=0;entryX=0.258;entryY=0.063;entryDx=0;entryDy=0;entryPerimeter=0;" parent="77e6c97f196da883-1" source="6m0kf4rlSynbOd0qpqZj-111" target="6m0kf4rlSynbOd0qpqZj-98" edge="1">
          <mxGeometry relative="1" as="geometry" />
        </mxCell>
        <mxCell id="6m0kf4rlSynbOd0qpqZj-166" style="edgeStyle=none;rounded=0;orthogonalLoop=1;jettySize=auto;html=1;exitX=1;exitY=0.5;exitDx=0;exitDy=0;entryX=0.05;entryY=0.288;entryDx=0;entryDy=0;entryPerimeter=0;" parent="77e6c97f196da883-1" source="6m0kf4rlSynbOd0qpqZj-113" target="6m0kf4rlSynbOd0qpqZj-98" edge="1">
          <mxGeometry relative="1" as="geometry">
            <mxPoint x="2040" y="360" as="targetPoint" />
          </mxGeometry>
        </mxCell>
        <mxCell id="6m0kf4rlSynbOd0qpqZj-167" style="edgeStyle=none;rounded=0;orthogonalLoop=1;jettySize=auto;html=1;exitX=1;exitY=0.5;exitDx=0;exitDy=0;entryX=0;entryY=0.5;entryDx=0;entryDy=0;" parent="77e6c97f196da883-1" source="6m0kf4rlSynbOd0qpqZj-114" target="6m0kf4rlSynbOd0qpqZj-98" edge="1">
          <mxGeometry relative="1" as="geometry" />
        </mxCell>
        <mxCell id="6m0kf4rlSynbOd0qpqZj-168" style="edgeStyle=none;rounded=0;orthogonalLoop=1;jettySize=auto;html=1;exitX=1;exitY=0.5;exitDx=0;exitDy=0;entryX=0.05;entryY=0.713;entryDx=0;entryDy=0;entryPerimeter=0;" parent="77e6c97f196da883-1" source="6m0kf4rlSynbOd0qpqZj-115" target="6m0kf4rlSynbOd0qpqZj-98" edge="1">
          <mxGeometry relative="1" as="geometry" />
        </mxCell>
        <mxCell id="6m0kf4rlSynbOd0qpqZj-169" style="edgeStyle=none;rounded=0;orthogonalLoop=1;jettySize=auto;html=1;exitX=1;exitY=0.5;exitDx=0;exitDy=0;entryX=0;entryY=1;entryDx=0;entryDy=0;" parent="77e6c97f196da883-1" source="6m0kf4rlSynbOd0qpqZj-116" target="6m0kf4rlSynbOd0qpqZj-98" edge="1">
          <mxGeometry relative="1" as="geometry">
            <mxPoint x="2050" y="420" as="targetPoint" />
          </mxGeometry>
        </mxCell>
        <mxCell id="6m0kf4rlSynbOd0qpqZj-165" style="edgeStyle=none;rounded=0;orthogonalLoop=1;jettySize=auto;html=1;exitX=1;exitY=0.5;exitDx=0;exitDy=0;entryX=0;entryY=0;entryDx=0;entryDy=0;" parent="77e6c97f196da883-1" source="6m0kf4rlSynbOd0qpqZj-112" target="6m0kf4rlSynbOd0qpqZj-98" edge="1">
          <mxGeometry relative="1" as="geometry">
            <mxPoint x="2050" y="370" as="targetPoint" />
          </mxGeometry>
        </mxCell>
        <mxCell id="6m0kf4rlSynbOd0qpqZj-170" style="edgeStyle=none;rounded=0;orthogonalLoop=1;jettySize=auto;html=1;exitX=1;exitY=0.5;exitDx=0;exitDy=0;entryX=0.233;entryY=0.963;entryDx=0;entryDy=0;entryPerimeter=0;" parent="77e6c97f196da883-1" source="6m0kf4rlSynbOd0qpqZj-117" target="6m0kf4rlSynbOd0qpqZj-98" edge="1">
          <mxGeometry relative="1" as="geometry">
            <mxPoint x="2050" y="420" as="targetPoint" />
          </mxGeometry>
        </mxCell>
        <mxCell id="77e6c97f196da883-6" value="Parameters Testing" style="swimlane;html=1;startSize=20;" parent="1" vertex="1">
          <mxGeometry x="820" y="80" width="580" height="740" as="geometry" />
        </mxCell>
        <mxCell id="fh5AQjrK4AlLcC_H-wfN-58" value="&lt;font style=&quot;font-size: 14px;&quot; face=&quot;Times New Roman&quot;&gt;Hyperparameters&lt;/font&gt;" style="swimlane;fontStyle=0;childLayout=stackLayout;horizontal=1;startSize=30;horizontalStack=0;resizeParent=1;resizeParentMax=0;resizeLast=0;collapsible=1;marginBottom=0;whiteSpace=wrap;html=1;rounded=1;shadow=0;strokeColor=default;strokeWidth=1;align=center;verticalAlign=middle;fontFamily=Verdana;fontSize=8;fontColor=default;labelBackgroundColor=none;fillColor=default;" parent="77e6c97f196da883-6" vertex="1">
          <mxGeometry x="320" y="25" width="190" height="90" as="geometry" />
        </mxCell>
        <mxCell id="fh5AQjrK4AlLcC_H-wfN-59" value="&lt;div&gt;&lt;font face=&quot;Times New Roman&quot;&gt;&lt;span style=&quot;font-size: 12px;&quot;&gt;&quot;k neighbors&quot;:&lt;/span&gt;&lt;/font&gt;&lt;span style=&quot;font-size: 12px; font-family: &amp;quot;Times New Roman&amp;quot;; background-color: initial;&quot;&gt;&amp;nbsp;np.arange(1,81,2)&lt;/span&gt;&lt;/div&gt;&lt;div&gt;&lt;font face=&quot;Times New Roman&quot;&gt;&lt;span style=&quot;font-size: 12px;&quot;&gt;&amp;nbsp; &amp;nbsp; &amp;nbsp; &amp;nbsp; &amp;nbsp;&lt;/span&gt;&lt;/font&gt;&lt;/div&gt;" style="text;strokeColor=none;fillColor=none;align=left;verticalAlign=middle;spacingLeft=4;spacingRight=4;overflow=hidden;points=[[0,0.5],[1,0.5]];portConstraint=eastwest;rotatable=0;whiteSpace=wrap;html=1;fontFamily=Verdana;fontSize=8;fontColor=default;labelBackgroundColor=none;" parent="fh5AQjrK4AlLcC_H-wfN-58" vertex="1">
          <mxGeometry y="30" width="190" height="30" as="geometry" />
        </mxCell>
        <mxCell id="fh5AQjrK4AlLcC_H-wfN-60" value="&lt;div&gt;&lt;span style=&quot;font-family: &amp;quot;Times New Roman&amp;quot;; font-size: 12px;&quot;&gt;&quot;metric&quot;: [&quot;euclidean&quot;, &quot;manhattan&quot;]&lt;/span&gt;&lt;br&gt;&lt;/div&gt;" style="text;strokeColor=none;fillColor=none;align=left;verticalAlign=middle;spacingLeft=4;spacingRight=4;overflow=hidden;points=[[0,0.5],[1,0.5]];portConstraint=eastwest;rotatable=0;whiteSpace=wrap;html=1;fontFamily=Verdana;fontSize=8;fontColor=default;labelBackgroundColor=none;" parent="fh5AQjrK4AlLcC_H-wfN-58" vertex="1">
          <mxGeometry y="60" width="190" height="30" as="geometry" />
        </mxCell>
        <mxCell id="fh5AQjrK4AlLcC_H-wfN-93" value="&lt;span style=&quot;font-family: &amp;quot;Times New Roman&amp;quot;; font-size: 14px;&quot;&gt;Hyperparameters&lt;/span&gt;" style="swimlane;fontStyle=0;childLayout=stackLayout;horizontal=1;startSize=30;horizontalStack=0;resizeParent=1;resizeParentMax=0;resizeLast=0;collapsible=1;marginBottom=0;whiteSpace=wrap;html=1;rounded=1;shadow=0;strokeColor=default;strokeWidth=1;align=center;verticalAlign=middle;fontFamily=Verdana;fontSize=8;fontColor=default;labelBackgroundColor=none;fillColor=default;" parent="77e6c97f196da883-6" vertex="1">
          <mxGeometry x="300" y="150" width="230" height="210" as="geometry" />
        </mxCell>
        <mxCell id="fh5AQjrK4AlLcC_H-wfN-94" value="&lt;font face=&quot;Times New Roman&quot;&gt;&lt;span style=&quot;font-size: 12px;&quot;&gt;&quot;hidden layer sizes&quot;: [(50,), (100,), (50, 50)]&lt;/span&gt;&lt;/font&gt;" style="text;strokeColor=none;fillColor=none;align=left;verticalAlign=middle;spacingLeft=4;spacingRight=4;overflow=hidden;points=[[0,0.5],[1,0.5]];portConstraint=eastwest;rotatable=0;whiteSpace=wrap;html=1;fontFamily=Verdana;fontSize=8;fontColor=default;labelBackgroundColor=none;" parent="fh5AQjrK4AlLcC_H-wfN-93" vertex="1">
          <mxGeometry y="30" width="230" height="30" as="geometry" />
        </mxCell>
        <mxCell id="fh5AQjrK4AlLcC_H-wfN-95" value="&lt;div&gt;&lt;font face=&quot;Times New Roman&quot;&gt;&lt;span style=&quot;font-size: 12px;&quot;&gt;&quot;activation&quot;: [&quot;relu&quot;, &quot;tanh&quot;, &quot;logistic&quot;]&lt;/span&gt;&lt;/font&gt;&lt;br&gt;&lt;/div&gt;" style="text;strokeColor=none;fillColor=none;align=left;verticalAlign=middle;spacingLeft=4;spacingRight=4;overflow=hidden;points=[[0,0.5],[1,0.5]];portConstraint=eastwest;rotatable=0;whiteSpace=wrap;html=1;fontFamily=Verdana;fontSize=8;fontColor=default;labelBackgroundColor=none;" parent="fh5AQjrK4AlLcC_H-wfN-93" vertex="1">
          <mxGeometry y="60" width="230" height="30" as="geometry" />
        </mxCell>
        <mxCell id="fh5AQjrK4AlLcC_H-wfN-96" value="&lt;div&gt;&lt;font face=&quot;Times New Roman&quot;&gt;&lt;span style=&quot;font-size: 12px;&quot;&gt;&quot;solver&quot;: [&quot;adam&quot;, &quot;sgd&quot;]&lt;/span&gt;&lt;/font&gt;&lt;br&gt;&lt;/div&gt;" style="text;strokeColor=none;fillColor=none;align=left;verticalAlign=middle;spacingLeft=4;spacingRight=4;overflow=hidden;points=[[0,0.5],[1,0.5]];portConstraint=eastwest;rotatable=0;whiteSpace=wrap;html=1;fontFamily=Verdana;fontSize=8;fontColor=default;labelBackgroundColor=none;" parent="fh5AQjrK4AlLcC_H-wfN-93" vertex="1">
          <mxGeometry y="90" width="230" height="30" as="geometry" />
        </mxCell>
        <mxCell id="fh5AQjrK4AlLcC_H-wfN-97" value="&lt;div&gt;&lt;font face=&quot;Times New Roman&quot;&gt;&lt;span style=&quot;font-size: 12px;&quot;&gt;&quot;alpha&quot;: [0.0001, 0.001]&lt;/span&gt;&lt;/font&gt;&lt;br&gt;&lt;/div&gt;" style="text;strokeColor=none;fillColor=none;align=left;verticalAlign=middle;spacingLeft=4;spacingRight=4;overflow=hidden;points=[[0,0.5],[1,0.5]];portConstraint=eastwest;rotatable=0;whiteSpace=wrap;html=1;fontFamily=Verdana;fontSize=8;fontColor=default;labelBackgroundColor=none;" parent="fh5AQjrK4AlLcC_H-wfN-93" vertex="1">
          <mxGeometry y="120" width="230" height="30" as="geometry" />
        </mxCell>
        <mxCell id="fh5AQjrK4AlLcC_H-wfN-98" value="&lt;div&gt;&lt;font face=&quot;Times New Roman&quot;&gt;&lt;span style=&quot;font-size: 12px;&quot;&gt;&quot;learning rate&quot;: [&quot;constant&quot;, &quot;adaptive&quot;]&lt;/span&gt;&lt;/font&gt;&lt;br&gt;&lt;/div&gt;" style="text;strokeColor=none;fillColor=none;align=left;verticalAlign=middle;spacingLeft=4;spacingRight=4;overflow=hidden;points=[[0,0.5],[1,0.5]];portConstraint=eastwest;rotatable=0;whiteSpace=wrap;html=1;fontFamily=Verdana;fontSize=8;fontColor=default;labelBackgroundColor=none;" parent="fh5AQjrK4AlLcC_H-wfN-93" vertex="1">
          <mxGeometry y="150" width="230" height="30" as="geometry" />
        </mxCell>
        <mxCell id="fh5AQjrK4AlLcC_H-wfN-99" value="&lt;div&gt;&lt;font face=&quot;Times New Roman&quot;&gt;&lt;span style=&quot;font-size: 12px;&quot;&gt;&quot;max iter&quot;: [300, 500, 700]&lt;/span&gt;&lt;/font&gt;&lt;br&gt;&lt;/div&gt;" style="text;strokeColor=none;fillColor=none;align=left;verticalAlign=middle;spacingLeft=4;spacingRight=4;overflow=hidden;points=[[0,0.5],[1,0.5]];portConstraint=eastwest;rotatable=0;whiteSpace=wrap;html=1;fontFamily=Verdana;fontSize=8;fontColor=default;labelBackgroundColor=none;" parent="fh5AQjrK4AlLcC_H-wfN-93" vertex="1">
          <mxGeometry y="180" width="230" height="30" as="geometry" />
        </mxCell>
        <mxCell id="fh5AQjrK4AlLcC_H-wfN-107" value="&lt;span style=&quot;font-family: &amp;quot;Times New Roman&amp;quot;; font-size: 14px;&quot;&gt;Hyperparameters&lt;/span&gt;" style="swimlane;fontStyle=0;childLayout=stackLayout;horizontal=1;startSize=30;horizontalStack=0;resizeParent=1;resizeParentMax=0;resizeLast=0;collapsible=1;marginBottom=0;whiteSpace=wrap;html=1;rounded=1;shadow=0;strokeColor=default;strokeWidth=1;align=center;verticalAlign=middle;fontFamily=Verdana;fontSize=8;fontColor=default;labelBackgroundColor=none;fillColor=default;" parent="77e6c97f196da883-6" vertex="1">
          <mxGeometry x="10" y="550" width="180" height="150" as="geometry" />
        </mxCell>
        <mxCell id="fh5AQjrK4AlLcC_H-wfN-108" value="&lt;font face=&quot;Times New Roman&quot;&gt;&lt;span style=&quot;font-size: 12px;&quot;&gt;&quot;kernel&quot;: [&quot;rbf&quot;, &quot;poly&quot;, &quot;linear&quot;]&lt;/span&gt;&lt;/font&gt;" style="text;strokeColor=none;fillColor=none;align=left;verticalAlign=middle;spacingLeft=4;spacingRight=4;overflow=hidden;points=[[0,0.5],[1,0.5]];portConstraint=eastwest;rotatable=0;whiteSpace=wrap;html=1;fontFamily=Verdana;fontSize=8;fontColor=default;labelBackgroundColor=none;" parent="fh5AQjrK4AlLcC_H-wfN-107" vertex="1">
          <mxGeometry y="30" width="180" height="30" as="geometry" />
        </mxCell>
        <mxCell id="fh5AQjrK4AlLcC_H-wfN-109" value="&lt;div&gt;&lt;font face=&quot;Times New Roman&quot;&gt;&lt;span style=&quot;font-size: 12px;&quot;&gt;&quot;C&quot;: [1,2,3,4,5,7,10,100]&lt;/span&gt;&lt;/font&gt;&lt;br&gt;&lt;/div&gt;" style="text;strokeColor=none;fillColor=none;align=left;verticalAlign=middle;spacingLeft=4;spacingRight=4;overflow=hidden;points=[[0,0.5],[1,0.5]];portConstraint=eastwest;rotatable=0;whiteSpace=wrap;html=1;fontFamily=Verdana;fontSize=8;fontColor=default;labelBackgroundColor=none;" parent="fh5AQjrK4AlLcC_H-wfN-107" vertex="1">
          <mxGeometry y="60" width="180" height="40" as="geometry" />
        </mxCell>
        <mxCell id="fh5AQjrK4AlLcC_H-wfN-110" value="&lt;div&gt;&lt;font face=&quot;Times New Roman&quot;&gt;&lt;span style=&quot;font-size: 12px;&quot;&gt;&quot;gamma&quot;:[1,2,3,4,5,7,10,100]&lt;/span&gt;&lt;/font&gt;&lt;br&gt;&lt;/div&gt;" style="text;strokeColor=none;fillColor=none;align=left;verticalAlign=middle;spacingLeft=4;spacingRight=4;overflow=hidden;points=[[0,0.5],[1,0.5]];portConstraint=eastwest;rotatable=0;whiteSpace=wrap;html=1;fontFamily=Verdana;fontSize=8;fontColor=default;labelBackgroundColor=none;" parent="fh5AQjrK4AlLcC_H-wfN-107" vertex="1">
          <mxGeometry y="100" width="180" height="50" as="geometry" />
        </mxCell>
        <mxCell id="fh5AQjrK4AlLcC_H-wfN-70" value="&lt;span style=&quot;font-family: &amp;quot;Times New Roman&amp;quot;; font-size: 14px;&quot;&gt;Hyperparameters&lt;/span&gt;" style="swimlane;fontStyle=0;childLayout=stackLayout;horizontal=1;startSize=30;horizontalStack=0;resizeParent=1;resizeParentMax=0;resizeLast=0;collapsible=1;marginBottom=0;whiteSpace=wrap;html=1;rounded=1;shadow=0;strokeColor=default;strokeWidth=1;align=center;verticalAlign=middle;fontFamily=Verdana;fontSize=8;fontColor=default;labelBackgroundColor=none;fillColor=default;glass=0;" parent="77e6c97f196da883-6" vertex="1">
          <mxGeometry x="20" y="70" width="250" height="150" as="geometry" />
        </mxCell>
        <mxCell id="fh5AQjrK4AlLcC_H-wfN-71" value="&lt;font face=&quot;Times New Roman&quot;&gt;&lt;span style=&quot;font-size: 12px;&quot;&gt;&quot;prototype n per class&quot;: [1,3]&lt;/span&gt;&lt;/font&gt;" style="text;strokeColor=none;fillColor=none;align=left;verticalAlign=middle;spacingLeft=4;spacingRight=4;overflow=hidden;points=[[0,0.5],[1,0.5]];portConstraint=eastwest;rotatable=0;whiteSpace=wrap;html=1;fontFamily=Verdana;fontSize=8;fontColor=default;labelBackgroundColor=none;" parent="fh5AQjrK4AlLcC_H-wfN-70" vertex="1">
          <mxGeometry y="30" width="250" height="30" as="geometry" />
        </mxCell>
        <mxCell id="fh5AQjrK4AlLcC_H-wfN-72" value="&lt;div&gt;&lt;font face=&quot;Times New Roman&quot;&gt;&lt;span style=&quot;font-size: 12px;&quot;&gt;&quot;distance type&quot;: [&quot;euclidean&quot;,&quot;manhattan&quot;]&lt;/span&gt;&lt;/font&gt;&lt;br&gt;&lt;/div&gt;" style="text;strokeColor=none;fillColor=none;align=left;verticalAlign=middle;spacingLeft=4;spacingRight=4;overflow=hidden;points=[[0,0.5],[1,0.5]];portConstraint=eastwest;rotatable=0;whiteSpace=wrap;html=1;fontFamily=Verdana;fontSize=8;fontColor=default;labelBackgroundColor=none;" parent="fh5AQjrK4AlLcC_H-wfN-70" vertex="1">
          <mxGeometry y="60" width="250" height="40" as="geometry" />
        </mxCell>
        <mxCell id="fh5AQjrK4AlLcC_H-wfN-76" value="&lt;div&gt;&lt;font face=&quot;Times New Roman&quot;&gt;&lt;span style=&quot;font-size: 12px;&quot;&gt;&quot;solver params&quot;: {&quot;max runs&quot;: 5,&quot;step size&quot;: step} for step in [0.1,0.3,0.5]&lt;/span&gt;&lt;/font&gt;&lt;br&gt;&lt;/div&gt;" style="text;strokeColor=none;fillColor=none;align=left;verticalAlign=middle;spacingLeft=4;spacingRight=4;overflow=hidden;points=[[0,0.5],[1,0.5]];portConstraint=eastwest;rotatable=0;whiteSpace=wrap;html=1;fontFamily=Verdana;fontSize=8;fontColor=default;labelBackgroundColor=none;" parent="fh5AQjrK4AlLcC_H-wfN-70" vertex="1">
          <mxGeometry y="100" width="250" height="50" as="geometry" />
        </mxCell>
        <mxCell id="fh5AQjrK4AlLcC_H-wfN-77" value="&lt;span style=&quot;font-family: &amp;quot;Times New Roman&amp;quot;; font-size: 14px;&quot;&gt;Hyperparameters&lt;/span&gt;" style="swimlane;fontStyle=0;childLayout=stackLayout;horizontal=1;startSize=30;horizontalStack=0;resizeParent=1;resizeParentMax=0;resizeLast=0;collapsible=1;marginBottom=0;whiteSpace=wrap;html=1;rounded=1;shadow=0;strokeColor=default;strokeWidth=1;align=center;verticalAlign=middle;fontFamily=Verdana;fontSize=8;fontColor=default;labelBackgroundColor=none;fillColor=default;" parent="77e6c97f196da883-6" vertex="1">
          <mxGeometry x="25" y="290" width="230" height="220" as="geometry" />
        </mxCell>
        <mxCell id="fh5AQjrK4AlLcC_H-wfN-78" value="&lt;font face=&quot;Times New Roman&quot;&gt;&lt;span style=&quot;font-size: 12px;&quot;&gt;&quot;criterion&quot;: [&quot;gini&quot;, &quot;entropy&quot;,&quot;log loss&quot;]&lt;/span&gt;&lt;/font&gt;" style="text;strokeColor=none;fillColor=none;align=left;verticalAlign=middle;spacingLeft=4;spacingRight=4;overflow=hidden;points=[[0,0.5],[1,0.5]];portConstraint=eastwest;rotatable=0;whiteSpace=wrap;html=1;fontFamily=Verdana;fontSize=8;fontColor=default;labelBackgroundColor=none;" parent="fh5AQjrK4AlLcC_H-wfN-77" vertex="1">
          <mxGeometry y="30" width="230" height="30" as="geometry" />
        </mxCell>
        <mxCell id="fh5AQjrK4AlLcC_H-wfN-79" value="&lt;div&gt;&lt;font face=&quot;Times New Roman&quot;&gt;&lt;span style=&quot;font-size: 12px;&quot;&gt;&quot;splitter&quot;: [&quot;best&quot;, &quot;random&quot;]&lt;/span&gt;&lt;/font&gt;&lt;br&gt;&lt;/div&gt;" style="text;strokeColor=none;fillColor=none;align=left;verticalAlign=middle;spacingLeft=4;spacingRight=4;overflow=hidden;points=[[0,0.5],[1,0.5]];portConstraint=eastwest;rotatable=0;whiteSpace=wrap;html=1;fontFamily=Verdana;fontSize=8;fontColor=default;labelBackgroundColor=none;" parent="fh5AQjrK4AlLcC_H-wfN-77" vertex="1">
          <mxGeometry y="60" width="230" height="30" as="geometry" />
        </mxCell>
        <mxCell id="fh5AQjrK4AlLcC_H-wfN-80" value="&lt;div&gt;&lt;font face=&quot;Times New Roman&quot;&gt;&lt;span style=&quot;font-size: 12px;&quot;&gt;&quot;max depth&quot;: np.arange(5,10000,50)&lt;/span&gt;&lt;/font&gt;&lt;br&gt;&lt;/div&gt;" style="text;strokeColor=none;fillColor=none;align=left;verticalAlign=middle;spacingLeft=4;spacingRight=4;overflow=hidden;points=[[0,0.5],[1,0.5]];portConstraint=eastwest;rotatable=0;whiteSpace=wrap;html=1;fontFamily=Verdana;fontSize=8;fontColor=default;labelBackgroundColor=none;" parent="fh5AQjrK4AlLcC_H-wfN-77" vertex="1">
          <mxGeometry y="90" width="230" height="40" as="geometry" />
        </mxCell>
        <mxCell id="fh5AQjrK4AlLcC_H-wfN-83" value="&lt;div&gt;&lt;font face=&quot;Times New Roman&quot;&gt;&lt;span style=&quot;font-size: 12px;&quot;&gt;&quot;min samples leaf&quot;:&amp;nbsp; np.arange(1,10000,50)&lt;/span&gt;&lt;/font&gt;&lt;br&gt;&lt;/div&gt;" style="text;strokeColor=none;fillColor=none;align=left;verticalAlign=middle;spacingLeft=4;spacingRight=4;overflow=hidden;points=[[0,0.5],[1,0.5]];portConstraint=eastwest;rotatable=0;whiteSpace=wrap;html=1;fontFamily=Verdana;fontSize=8;fontColor=default;labelBackgroundColor=none;" parent="fh5AQjrK4AlLcC_H-wfN-77" vertex="1">
          <mxGeometry y="130" width="230" height="30" as="geometry" />
        </mxCell>
        <mxCell id="fh5AQjrK4AlLcC_H-wfN-85" value="&lt;div&gt;&lt;font face=&quot;Times New Roman&quot;&gt;&lt;span style=&quot;font-size: 12px;&quot;&gt;&quot;max features&quot;: [&quot;sqrt&quot;, &quot;log2&quot;]&lt;/span&gt;&lt;/font&gt;&lt;br&gt;&lt;/div&gt;" style="text;strokeColor=none;fillColor=none;align=left;verticalAlign=middle;spacingLeft=4;spacingRight=4;overflow=hidden;points=[[0,0.5],[1,0.5]];portConstraint=eastwest;rotatable=0;whiteSpace=wrap;html=1;fontFamily=Verdana;fontSize=8;fontColor=default;labelBackgroundColor=none;" parent="fh5AQjrK4AlLcC_H-wfN-77" vertex="1">
          <mxGeometry y="160" width="230" height="30" as="geometry" />
        </mxCell>
        <mxCell id="fh5AQjrK4AlLcC_H-wfN-84" value="&lt;div&gt;&lt;font face=&quot;Times New Roman&quot;&gt;&lt;span style=&quot;font-size: 12px;&quot;&gt;&quot;max leaf nodes&quot;: np.arange(2,10000,50)&lt;/span&gt;&lt;/font&gt;&lt;br&gt;&lt;/div&gt;" style="text;strokeColor=none;fillColor=none;align=left;verticalAlign=middle;spacingLeft=4;spacingRight=4;overflow=hidden;points=[[0,0.5],[1,0.5]];portConstraint=eastwest;rotatable=0;whiteSpace=wrap;html=1;fontFamily=Verdana;fontSize=8;fontColor=default;labelBackgroundColor=none;" parent="fh5AQjrK4AlLcC_H-wfN-77" vertex="1">
          <mxGeometry y="190" width="230" height="30" as="geometry" />
        </mxCell>
        <mxCell id="fh5AQjrK4AlLcC_H-wfN-123" value="&lt;span style=&quot;font-family: &amp;quot;Times New Roman&amp;quot;; font-size: 14px;&quot;&gt;Hyperparameters&lt;/span&gt;" style="swimlane;fontStyle=0;childLayout=stackLayout;horizontal=1;startSize=30;horizontalStack=0;resizeParent=1;resizeParentMax=0;resizeLast=0;collapsible=1;marginBottom=0;whiteSpace=wrap;html=1;rounded=1;shadow=0;strokeColor=default;strokeWidth=1;align=center;verticalAlign=middle;fontFamily=Verdana;fontSize=8;fontColor=default;labelBackgroundColor=none;fillColor=default;" parent="77e6c97f196da883-6" vertex="1">
          <mxGeometry x="290" y="390" width="210" height="190" as="geometry" />
        </mxCell>
        <mxCell id="fh5AQjrK4AlLcC_H-wfN-124" value="&lt;font face=&quot;Times New Roman&quot;&gt;&lt;span style=&quot;font-size: 12px;&quot;&gt;&quot;n estimators&quot;: np.arange(5, 1000, 10)&lt;/span&gt;&lt;/font&gt;" style="text;strokeColor=none;fillColor=none;align=left;verticalAlign=middle;spacingLeft=4;spacingRight=4;overflow=hidden;points=[[0,0.5],[1,0.5]];portConstraint=eastwest;rotatable=0;whiteSpace=wrap;html=1;fontFamily=Verdana;fontSize=8;fontColor=default;labelBackgroundColor=none;" parent="fh5AQjrK4AlLcC_H-wfN-123" vertex="1">
          <mxGeometry y="30" width="210" height="30" as="geometry" />
        </mxCell>
        <mxCell id="fh5AQjrK4AlLcC_H-wfN-125" value="&lt;div&gt;&lt;font face=&quot;Times New Roman&quot;&gt;&lt;span style=&quot;font-size: 12px;&quot;&gt;&quot;criterion&quot;: [&quot;gini&quot;, &quot;entropy&quot;, &quot;log loss&quot;]&lt;/span&gt;&lt;/font&gt;&lt;br&gt;&lt;/div&gt;" style="text;strokeColor=none;fillColor=none;align=left;verticalAlign=middle;spacingLeft=4;spacingRight=4;overflow=hidden;points=[[0,0.5],[1,0.5]];portConstraint=eastwest;rotatable=0;whiteSpace=wrap;html=1;fontFamily=Verdana;fontSize=8;fontColor=default;labelBackgroundColor=none;" parent="fh5AQjrK4AlLcC_H-wfN-123" vertex="1">
          <mxGeometry y="60" width="210" height="30" as="geometry" />
        </mxCell>
        <mxCell id="fh5AQjrK4AlLcC_H-wfN-126" value="&lt;div&gt;&lt;font face=&quot;Times New Roman&quot;&gt;&lt;span style=&quot;font-size: 12px;&quot;&gt;&quot;max depth&quot;: np.arange(1,50)&lt;/span&gt;&lt;/font&gt;&lt;br&gt;&lt;/div&gt;" style="text;strokeColor=none;fillColor=none;align=left;verticalAlign=middle;spacingLeft=4;spacingRight=4;overflow=hidden;points=[[0,0.5],[1,0.5]];portConstraint=eastwest;rotatable=0;whiteSpace=wrap;html=1;fontFamily=Verdana;fontSize=8;fontColor=default;labelBackgroundColor=none;" parent="fh5AQjrK4AlLcC_H-wfN-123" vertex="1">
          <mxGeometry y="90" width="210" height="40" as="geometry" />
        </mxCell>
        <mxCell id="fh5AQjrK4AlLcC_H-wfN-127" value="&lt;div&gt;&lt;font face=&quot;Times New Roman&quot;&gt;&lt;span style=&quot;font-size: 12px;&quot;&gt;&quot;min samples split&quot;: np.arange(2,100)&lt;/span&gt;&lt;/font&gt;&lt;br&gt;&lt;/div&gt;" style="text;strokeColor=none;fillColor=none;align=left;verticalAlign=middle;spacingLeft=4;spacingRight=4;overflow=hidden;points=[[0,0.5],[1,0.5]];portConstraint=eastwest;rotatable=0;whiteSpace=wrap;html=1;fontFamily=Verdana;fontSize=8;fontColor=default;labelBackgroundColor=none;" parent="fh5AQjrK4AlLcC_H-wfN-123" vertex="1">
          <mxGeometry y="130" width="210" height="30" as="geometry" />
        </mxCell>
        <mxCell id="fh5AQjrK4AlLcC_H-wfN-128" value="&lt;div&gt;&lt;font face=&quot;Times New Roman&quot;&gt;&lt;span style=&quot;font-size: 12px;&quot;&gt;&quot;min samples leaf&quot;: np.arange(1,100)&lt;/span&gt;&lt;/font&gt;&lt;br&gt;&lt;/div&gt;" style="text;strokeColor=none;fillColor=none;align=left;verticalAlign=middle;spacingLeft=4;spacingRight=4;overflow=hidden;points=[[0,0.5],[1,0.5]];portConstraint=eastwest;rotatable=0;whiteSpace=wrap;html=1;fontFamily=Verdana;fontSize=8;fontColor=default;labelBackgroundColor=none;" parent="fh5AQjrK4AlLcC_H-wfN-123" vertex="1">
          <mxGeometry y="160" width="210" height="30" as="geometry" />
        </mxCell>
        <mxCell id="fh5AQjrK4AlLcC_H-wfN-117" style="edgeStyle=orthogonalEdgeStyle;curved=1;rounded=0;orthogonalLoop=1;jettySize=auto;html=1;exitX=1;exitY=0.5;exitDx=0;exitDy=0;entryX=-0.004;entryY=0.12;entryDx=0;entryDy=0;entryPerimeter=0;fontFamily=Verdana;fontSize=8;fontColor=default;labelBackgroundColor=none;" parent="1" source="fh5AQjrK4AlLcC_H-wfN-40" target="fh5AQjrK4AlLcC_H-wfN-107" edge="1">
          <mxGeometry relative="1" as="geometry" />
        </mxCell>
        <mxCell id="fh5AQjrK4AlLcC_H-wfN-118" style="edgeStyle=orthogonalEdgeStyle;curved=1;rounded=0;orthogonalLoop=1;jettySize=auto;html=1;exitX=1;exitY=0.5;exitDx=0;exitDy=0;entryX=-0.005;entryY=0.189;entryDx=0;entryDy=0;entryPerimeter=0;fontFamily=Verdana;fontSize=8;fontColor=default;labelBackgroundColor=none;" parent="1" source="77e6c97f196da883-13" target="fh5AQjrK4AlLcC_H-wfN-58" edge="1">
          <mxGeometry relative="1" as="geometry" />
        </mxCell>
        <mxCell id="fh5AQjrK4AlLcC_H-wfN-119" style="edgeStyle=orthogonalEdgeStyle;curved=1;rounded=0;orthogonalLoop=1;jettySize=auto;html=1;exitX=1;exitY=0.5;exitDx=0;exitDy=0;entryX=0.012;entryY=0.127;entryDx=0;entryDy=0;entryPerimeter=0;fontFamily=Verdana;fontSize=8;fontColor=default;labelBackgroundColor=none;" parent="1" source="fh5AQjrK4AlLcC_H-wfN-37" target="fh5AQjrK4AlLcC_H-wfN-70" edge="1">
          <mxGeometry relative="1" as="geometry" />
        </mxCell>
        <mxCell id="fh5AQjrK4AlLcC_H-wfN-120" style="edgeStyle=orthogonalEdgeStyle;curved=1;rounded=0;orthogonalLoop=1;jettySize=auto;html=1;exitX=1;exitY=0.5;exitDx=0;exitDy=0;entryX=-0.004;entryY=0.064;entryDx=0;entryDy=0;entryPerimeter=0;fontFamily=Verdana;fontSize=8;fontColor=default;labelBackgroundColor=none;" parent="1" source="fh5AQjrK4AlLcC_H-wfN-38" target="fh5AQjrK4AlLcC_H-wfN-77" edge="1">
          <mxGeometry relative="1" as="geometry" />
        </mxCell>
        <mxCell id="fh5AQjrK4AlLcC_H-wfN-134" style="edgeStyle=orthogonalEdgeStyle;rounded=0;orthogonalLoop=1;jettySize=auto;html=1;exitX=1;exitY=0.5;exitDx=0;exitDy=0;entryX=0.007;entryY=0.091;entryDx=0;entryDy=0;entryPerimeter=0;fontFamily=Verdana;fontSize=8;fontColor=default;labelBackgroundColor=none;" parent="1" source="fh5AQjrK4AlLcC_H-wfN-41" target="fh5AQjrK4AlLcC_H-wfN-123" edge="1">
          <mxGeometry relative="1" as="geometry">
            <Array as="points">
              <mxPoint x="780" y="610" />
              <mxPoint x="1090" y="610" />
              <mxPoint x="1090" y="507" />
            </Array>
          </mxGeometry>
        </mxCell>
        <mxCell id="6m0kf4rlSynbOd0qpqZj-6" style="edgeStyle=none;rounded=0;orthogonalLoop=1;jettySize=auto;html=1;exitX=1;exitY=0.25;exitDx=0;exitDy=0;entryX=-0.011;entryY=0.156;entryDx=0;entryDy=0;entryPerimeter=0;" parent="1" source="fh5AQjrK4AlLcC_H-wfN-58" target="6m0kf4rlSynbOd0qpqZj-8" edge="1">
          <mxGeometry relative="1" as="geometry">
            <mxPoint x="1370.9899999999998" y="126.01999999999998" as="targetPoint" />
          </mxGeometry>
        </mxCell>
        <mxCell id="6m0kf4rlSynbOd0qpqZj-35" style="edgeStyle=orthogonalEdgeStyle;curved=1;rounded=0;orthogonalLoop=1;jettySize=auto;html=1;exitX=1;exitY=0.5;exitDx=0;exitDy=0;entryX=-0.008;entryY=0.087;entryDx=0;entryDy=0;entryPerimeter=0;" parent="1" source="fh5AQjrK4AlLcC_H-wfN-71" target="6m0kf4rlSynbOd0qpqZj-22" edge="1">
          <mxGeometry relative="1" as="geometry">
            <Array as="points">
              <mxPoint x="1100" y="210" />
              <mxPoint x="1350" y="210" />
              <mxPoint x="1350" y="163" />
            </Array>
          </mxGeometry>
        </mxCell>
        <mxCell id="6m0kf4rlSynbOd0qpqZj-37" style="edgeStyle=orthogonalEdgeStyle;rounded=0;orthogonalLoop=1;jettySize=auto;html=1;exitX=1;exitY=0.5;exitDx=0;exitDy=0;entryX=0.004;entryY=0.086;entryDx=0;entryDy=0;entryPerimeter=0;" parent="1" source="fh5AQjrK4AlLcC_H-wfN-39" target="fh5AQjrK4AlLcC_H-wfN-93" edge="1">
          <mxGeometry relative="1" as="geometry">
            <Array as="points">
              <mxPoint x="780" y="350" />
              <mxPoint x="1110" y="350" />
              <mxPoint x="1110" y="248" />
            </Array>
          </mxGeometry>
        </mxCell>
        <mxCell id="6m0kf4rlSynbOd0qpqZj-38" style="edgeStyle=orthogonalEdgeStyle;rounded=0;orthogonalLoop=1;jettySize=auto;html=1;exitX=1;exitY=0.5;exitDx=0;exitDy=0;entryX=0;entryY=0.5;entryDx=0;entryDy=0;" parent="1" source="fh5AQjrK4AlLcC_H-wfN-96" target="6m0kf4rlSynbOd0qpqZj-14" edge="1">
          <mxGeometry relative="1" as="geometry" />
        </mxCell>
        <mxCell id="6m0kf4rlSynbOd0qpqZj-45" style="edgeStyle=orthogonalEdgeStyle;rounded=0;orthogonalLoop=1;jettySize=auto;html=1;exitX=1;exitY=0.5;exitDx=0;exitDy=0;entryX=0;entryY=0.093;entryDx=0;entryDy=0;entryPerimeter=0;curved=1;" parent="1" source="fh5AQjrK4AlLcC_H-wfN-108" target="6m0kf4rlSynbOd0qpqZj-18" edge="1">
          <mxGeometry relative="1" as="geometry">
            <Array as="points">
              <mxPoint x="1090" y="675" />
              <mxPoint x="1090" y="670" />
              <mxPoint x="1360" y="670" />
              <mxPoint x="1360" y="598" />
            </Array>
          </mxGeometry>
        </mxCell>
        <mxCell id="6m0kf4rlSynbOd0qpqZj-48" style="edgeStyle=orthogonalEdgeStyle;curved=1;rounded=0;orthogonalLoop=1;jettySize=auto;html=1;exitX=1;exitY=0.5;exitDx=0;exitDy=0;entryX=0;entryY=0.095;entryDx=0;entryDy=0;entryPerimeter=0;" parent="1" source="fh5AQjrK4AlLcC_H-wfN-125" target="6m0kf4rlSynbOd0qpqZj-39" edge="1">
          <mxGeometry relative="1" as="geometry">
            <Array as="points">
              <mxPoint x="1320" y="580" />
              <mxPoint x="1560" y="580" />
              <mxPoint x="1560" y="432" />
            </Array>
          </mxGeometry>
        </mxCell>
      </root>
    </mxGraphModel>
  </diagram>
</mxfile>
